{
	"asset":{
		"generator":"Khronos glTF Blender I/O v5.0.21",
		"version":"2.0"
	},
	"extensionsUsed":[
		"KHR_materials_specular",
		"KHR_materials_ior"
	],
	"scene":0,
	"scenes":[
		{
			"extras":{
				"LLStudio":{},
				"contentpacks_col":[
					{
						"name":"header"
					},
					{
						"name":"Base Clothes",
						"pack_name":"Base Clothes",
						"creator":"HumGen",
						"pack_version":"1.0",
						"required_version":"1.0",
						"weblink":"https://www.humgen3d.com",
						"description":null,
						"icon_name":null,
						"json_path":"G:\\BLENDER\\5 - ADDONS\\HUMAN GENERATOR\\My_Human_Generator_Files (2.93)\\\\content_packs\\Base_Clothes.json",
						"humans":0,
						"human_textures":0,
						"shapekeys":0,
						"hair":0,
						"poses":0,
						"clothes":1,
						"footwear":1,
						"expressions":0
					},
					{
						"name":"Base Hair",
						"pack_name":"Base Hair",
						"creator":"HumGen",
						"pack_version":"1.0",
						"required_version":"1.0",
						"weblink":"https://www.humgen3d.com",
						"description":null,
						"icon_name":null,
						"json_path":"G:\\BLENDER\\5 - ADDONS\\HUMAN GENERATOR\\My_Human_Generator_Files (2.93)\\\\content_packs\\Base_Hair.json",
						"humans":0,
						"human_textures":0,
						"shapekeys":0,
						"hair":1,
						"poses":0,
						"clothes":0,
						"footwear":0,
						"expressions":0
					},
					{
						"name":"Base Humans",
						"pack_name":"Base Humans",
						"creator":"HumGen",
						"pack_version":"1.0",
						"required_version":"1.0",
						"weblink":"https://www.humgen3d.com",
						"description":null,
						"icon_name":null,
						"json_path":"G:\\BLENDER\\5 - ADDONS\\HUMAN GENERATOR\\My_Human_Generator_Files (2.93)\\\\content_packs\\Base_Humans.json",
						"humans":1,
						"human_textures":1,
						"shapekeys":1,
						"hair":0,
						"poses":0,
						"clothes":0,
						"footwear":0,
						"expressions":1
					},
					{
						"name":"Base Poses",
						"pack_name":"Base Poses",
						"creator":"HumGen",
						"pack_version":"1.0",
						"required_version":"1.0",
						"weblink":"https://www.humgen3d.com",
						"description":null,
						"icon_name":null,
						"json_path":"G:\\BLENDER\\5 - ADDONS\\HUMAN GENERATOR\\My_Human_Generator_Files (2.93)\\\\content_packs\\Base_Poses.json",
						"humans":0,
						"human_textures":0,
						"shapekeys":0,
						"hair":0,
						"poses":1,
						"clothes":0,
						"footwear":0,
						"expressions":0
					}
				],
				"HG3D":{
					"subscribed":1,
					"load_exception":0,
					"previews_dir_humans":"",
					"previews_list_humans":[
						"\\models\\male\\Asian.jpg",
						"\\models\\male\\Black.jpg",
						"\\models\\male\\Caucasian.jpg"
					],
					"pcoll_humans":"none"
				},
				"blenderkitUI":{
					"asset_type":2,
					"dragging":0,
					"assetbar_on":0,
					"turn_off":0,
					"margin":0,
					"thumb_size":96,
					"bar_x":107,
					"bar_end":430,
					"bar_width":2636,
					"wcount":27,
					"hcount":0,
					"bar_height":0,
					"bar_y":1812,
					"reports_y":1712,
					"reports_x":107,
					"rating_x":107,
					"rating_y":1812,
					"mouse_x":59,
					"mouse_y":1954,
					"has_hit":0,
					"active_index":-3,
					"draw_drag_image":0,
					"draw_snapped_bounds":0,
					"draw_tooltip":0
				},
				"blenderkit_models":{},
				"blenderkit_mat":{
					"is_searching":1,
					"report":"BlenderKit searching....",
					"search_keywords":"+is_free:true+score_gte:1000+order:-created"
				},
				"pdt_pg":{},
				"atmosphere_settings":{},
				"general_settings":{},
				"flip_fluid":{},
				"flip_fluid_material_library":{
					"library_path":"C:\\Users\\marco\\AppData\\Roaming\\Blender Foundation\\Blender\\3.0\\scripts\\addons\\flip_fluids_addon\\materials\\material_library",
					"material_list":[
						{
							"name":"FF Apple Juice",
							"description":"",
							"path":"C:\\Users\\marco\\AppData\\Roaming\\Blender Foundation\\Blender\\3.0\\scripts\\addons\\flip_fluids_addon\\materials\\material_library\\surface\\FF Apple Juice.blend",
							"type":0,
							"icon_id":1149,
							"imported_icon_id":1150
						},
						{
							"name":"FF Beer",
							"description":"",
							"path":"C:\\Users\\marco\\AppData\\Roaming\\Blender Foundation\\Blender\\3.0\\scripts\\addons\\flip_fluids_addon\\materials\\material_library\\surface\\FF Beer.blend",
							"type":0,
							"icon_id":1151,
							"imported_icon_id":1152
						},
						{
							"name":"FF Blood",
							"description":"",
							"path":"C:\\Users\\marco\\AppData\\Roaming\\Blender Foundation\\Blender\\3.0\\scripts\\addons\\flip_fluids_addon\\materials\\material_library\\surface\\FF Blood.blend",
							"type":0,
							"icon_id":1153,
							"imported_icon_id":1154
						},
						{
							"name":"FF Caramel",
							"description":"",
							"path":"C:\\Users\\marco\\AppData\\Roaming\\Blender Foundation\\Blender\\3.0\\scripts\\addons\\flip_fluids_addon\\materials\\material_library\\surface\\FF Caramel.blend",
							"type":0,
							"icon_id":1155,
							"imported_icon_id":1156
						},
						{
							"name":"FF Chocolate",
							"description":"",
							"path":"C:\\Users\\marco\\AppData\\Roaming\\Blender Foundation\\Blender\\3.0\\scripts\\addons\\flip_fluids_addon\\materials\\material_library\\surface\\FF Chocolate.blend",
							"type":0,
							"icon_id":1157,
							"imported_icon_id":1158
						},
						{
							"name":"FF Coffee",
							"description":"",
							"path":"C:\\Users\\marco\\AppData\\Roaming\\Blender Foundation\\Blender\\3.0\\scripts\\addons\\flip_fluids_addon\\materials\\material_library\\surface\\FF Coffee.blend",
							"type":0,
							"icon_id":1159,
							"imported_icon_id":1160
						},
						{
							"name":"FF Copper",
							"description":"",
							"path":"C:\\Users\\marco\\AppData\\Roaming\\Blender Foundation\\Blender\\3.0\\scripts\\addons\\flip_fluids_addon\\materials\\material_library\\surface\\FF Copper.blend",
							"type":0,
							"icon_id":1161,
							"imported_icon_id":1162
						},
						{
							"name":"FF Milk",
							"description":"",
							"path":"C:\\Users\\marco\\AppData\\Roaming\\Blender Foundation\\Blender\\3.0\\scripts\\addons\\flip_fluids_addon\\materials\\material_library\\surface\\FF Milk.blend",
							"type":0,
							"icon_id":1163,
							"imported_icon_id":1164
						},
						{
							"name":"FF Orange Juice",
							"description":"",
							"path":"C:\\Users\\marco\\AppData\\Roaming\\Blender Foundation\\Blender\\3.0\\scripts\\addons\\flip_fluids_addon\\materials\\material_library\\surface\\FF Orange Juice.blend",
							"type":0,
							"icon_id":1165,
							"imported_icon_id":1166
						},
						{
							"name":"FF Water (clear)",
							"description":"",
							"path":"C:\\Users\\marco\\AppData\\Roaming\\Blender Foundation\\Blender\\3.0\\scripts\\addons\\flip_fluids_addon\\materials\\material_library\\surface\\FF Water (clear).blend",
							"type":0,
							"icon_id":1167,
							"imported_icon_id":1168
						},
						{
							"name":"FF Water (iced)",
							"description":"",
							"path":"C:\\Users\\marco\\AppData\\Roaming\\Blender Foundation\\Blender\\3.0\\scripts\\addons\\flip_fluids_addon\\materials\\material_library\\surface\\FF Water (iced).blend",
							"type":0,
							"icon_id":1169,
							"imported_icon_id":1170
						},
						{
							"name":"FF Water (ocean 1)",
							"description":"",
							"path":"C:\\Users\\marco\\AppData\\Roaming\\Blender Foundation\\Blender\\3.0\\scripts\\addons\\flip_fluids_addon\\materials\\material_library\\surface\\FF Water (ocean 1).blend",
							"type":0,
							"icon_id":1171,
							"imported_icon_id":1172
						},
						{
							"name":"FF Water (ocean 2)",
							"description":"",
							"path":"C:\\Users\\marco\\AppData\\Roaming\\Blender Foundation\\Blender\\3.0\\scripts\\addons\\flip_fluids_addon\\materials\\material_library\\surface\\FF Water (ocean 2).blend",
							"type":0,
							"icon_id":1173,
							"imported_icon_id":1174
						},
						{
							"name":"FF Water (ocean volumetric)",
							"description":"",
							"path":"C:\\Users\\marco\\AppData\\Roaming\\Blender Foundation\\Blender\\3.0\\scripts\\addons\\flip_fluids_addon\\materials\\material_library\\surface\\FF Water (ocean volumetric).blend",
							"type":0,
							"icon_id":1175,
							"imported_icon_id":1176
						},
						{
							"name":"FF Wax",
							"description":"",
							"path":"C:\\Users\\marco\\AppData\\Roaming\\Blender Foundation\\Blender\\3.0\\scripts\\addons\\flip_fluids_addon\\materials\\material_library\\surface\\FF Wax.blend",
							"type":0,
							"icon_id":1177,
							"imported_icon_id":1178
						},
						{
							"name":"FF Wine Red",
							"description":"",
							"path":"C:\\Users\\marco\\AppData\\Roaming\\Blender Foundation\\Blender\\3.0\\scripts\\addons\\flip_fluids_addon\\materials\\material_library\\surface\\FF Wine Red.blend",
							"type":0,
							"icon_id":1179,
							"imported_icon_id":1180
						},
						{
							"name":"FF Bubble",
							"description":"",
							"path":"C:\\Users\\marco\\AppData\\Roaming\\Blender Foundation\\Blender\\3.0\\scripts\\addons\\flip_fluids_addon\\materials\\material_library\\whitewater\\FF Bubble.blend",
							"type":1,
							"icon_id":1181,
							"imported_icon_id":1182
						},
						{
							"name":"FF Foam",
							"description":"",
							"path":"C:\\Users\\marco\\AppData\\Roaming\\Blender Foundation\\Blender\\3.0\\scripts\\addons\\flip_fluids_addon\\materials\\material_library\\whitewater\\FF Foam.blend",
							"type":1,
							"icon_id":1183,
							"imported_icon_id":1184
						},
						{
							"name":"FF Spray",
							"description":"",
							"path":"C:\\Users\\marco\\AppData\\Roaming\\Blender Foundation\\Blender\\3.0\\scripts\\addons\\flip_fluids_addon\\materials\\material_library\\whitewater\\FF Spray.blend",
							"type":1,
							"icon_id":1185,
							"imported_icon_id":1186
						}
					]
				},
				"SMR":{
					"SMR_path":"G:\\BLENDER\\5 - ADDONS\\Smudgr Pro - 1 Click Photorealism\\SMR_Files_V4\\",
					"previews_dir_smudge":"",
					"previews_list_smudge":[
						"\\other\\Dust1_SMUDGR_1K.jpg",
						"\\other\\Dust2_SMUDGR_1K.jpg",
						"\\smudges\\Fingerprints1_SMUDGR_1K.jpg",
						"\\smudges\\Fingerprints2_SMUDGR_1K.jpg",
						"\\smudges\\Fingerprints3_SMUDGR_1K.jpg",
						"\\smudges\\Fingerprints5_SMUDGR_1K.jpg",
						"\\smudges\\Fingerprints6_SMUDGR_1K.jpg",
						"\\smudges\\Glasses1_SMUDGR_1K.jpg",
						"\\smudges\\Handprints1_SMUDGR_1K.jpg",
						"\\smudges\\Handprints2_SMUDGR_1K.jpg",
						"\\smudges\\Smudges1_SMUDGR_1K.jpg",
						"\\smudges\\Smudges2_SMUDGR_1K.jpg",
						"\\stains\\Liquid1_SMUDGR_1K.jpg",
						"\\stains\\Liquid2_SMUDGR_1K.jpg",
						"\\stains\\Liquid3_SMUDGR_1K.jpg",
						"\\stains\\Stains1_SMUDGR_1K.jpg",
						"\\stains\\Stains2_SMUDGR_1K.jpg",
						"\\wipes\\Dust3_SMUDGR_1K.jpg",
						"\\wipes\\Dust4_SMUDGR_1K.jpg",
						"\\wipes\\Fingerprints4_SMUDGR_1K.jpg",
						"\\wipes\\Wipes1_SMUDGR_1K.jpg",
						"\\wipes\\Wipes2_SMUDGR_1K.jpg",
						"\\wipes\\Wipes3_SMUDGR_1K.jpg",
						"\\wipes\\Wipes4_SMUDGR_1K.jpg",
						"\\wipes\\Wipes5_SMUDGR_1K.jpg"
					],
					"previews_listsmudge":[],
					"previews_dir_scratch":"",
					"previews_list_scratch":[
						"\\Scratches_1_heavy_1K.png",
						"\\Scratches_1_light_1K.png",
						"\\Scratches_2_Heavy_1K.png",
						"\\Scratches_2_Light_1K.png",
						"\\Scratches_3_Heavy_1K.png",
						"\\Scratches_3_Light_1K.png",
						"\\Scratches_4_Heavy_1K.png",
						"\\Scratches_4_Light_1K.png",
						"\\Scratches_5_Heavy_1K.png",
						"\\Scratches_5_Light_1K.png",
						"\\Scratches_6_VAR1_1K.png",
						"\\Scratches_6_VAR2_1K.png",
						"\\Scratches_7_1K.png",
						"\\Scratches_8_1K.png",
						"\\Scratches_9_1K.png"
					],
					"previews_listscratch":[],
					"previews_dir_dust":"",
					"previews_list_dust":[
						"\\SMR_Dust1_1K.jpg",
						"\\SMR_Dust2_1K.jpg",
						"\\SMR_Dust3_1K.jpg",
						"\\SMR_Dust4_1K.jpg",
						"\\SMR_Dust5_1K.jpg",
						"\\SMR_Dust6_1K.jpg",
						"\\SMR_Dust7_1K.jpg"
					],
					"previews_listdust":[],
					"previews_dir_droplets":"",
					"previews_list_droplets":[
						"\\Droplet1_Height.png",
						"\\Droplet2_Height.png",
						"\\Droplet3_Height.png"
					],
					"previews_listdroplets":[],
					"SMR_path_smudge":"\\other\\Dust1_SMUDGR_1K.jpg",
					"SMR_path_scratch":"\\Scratches_1_heavy_1K.png",
					"SMR_path_dust":"\\SMR_Dust1_1K.jpg",
					"SMR_path_droplets":"\\Droplet1_Height.png",
					"subscribed":1,
					"activation_exception":0,
					"is_SMR_slot":0,
					"has_dust":0,
					"has_smudge":0,
					"has_droplets":0,
					"has_scratch":0,
					"has_bake":0,
					"inf_smudge_int":0,
					"inf_smudge_bcm":0,
					"inf_scratch_int":0,
					"inf_scratch_bcm":0,
					"wear_cavity":0,
					"wear_edge":0,
					"dust_at":0,
					"smudge_at":0,
					"scratch_at":0,
					"inf_dust1":0,
					"inf_dust_inf":0,
					"inf_droplets":0,
					"SMR_active_mat":"metal",
					"is_SMR_object":0
				},
				"scatter_properties":{},
				"uuid":"34160184-cc75-4fb2-830d-8eb83129d195",
				"assets reported":{},
				"scene_check_set":{
					"preset_tool":1,
					"preset_list":1,
					"preset_save_name":"",
					"delete_loose":1,
					"loose_vertex":1,
					"loose_edge":1,
					"delete_double":1,
					"double_value":9.999999747378752e-05,
					"t_t_t_q":1,
					"tris_quad_menu":0,
					"max_face_angle":40.0,
					"max_shape_angle":40.0,
					"compare_seam":1,
					"compare_uv":1,
					"compare_vcols":1,
					"compare_sharp":1,
					"compare_materials":1,
					"quad_method":0,
					"quad_polymet":0,
					"limited_dissolve":1,
					"dissolve_value":0.10000000149011612,
					"regular_dissolve":0,
					"material_dissolve":1,
					"seam_dissolve":0,
					"sharp_dissolve":0,
					"uvs_dissolve":1,
					"make_normal":1,
					"in_out_menu":0,
					"all_boundaries":0,
					"shade_smooth_menu":0,
					"result_smooth":0,
					"result_faces":-5404,
					"result_vertex":-1811,
					"result_edges":-7156
				},
				"bmd_material_active":{}
			},
			"name":"Scene",
			"nodes":[
				25,
				42
			]
		}
	],
	"nodes":[
		{
			"extras":{
				"HG":{},
				"flip_fluid":{},
				"ant_landscape":{},
				"jv_properties":{}
			},
			"mesh":0,
			"name":"base",
			"scale":[
				999.9999389648438,
				999.9999389648438,
				999.9999389648438
			],
			"translation":[
				0,
				155,
				0
			]
		},
		{
			"extras":{
				"HG":{},
				"flip_fluid":{},
				"ant_landscape":{},
				"jv_properties":{}
			},
			"mesh":1,
			"name":"column",
			"scale":[
				999.9999389648438,
				999.9999389648438,
				999.9999389648438
			],
			"translation":[
				0,
				125.00000762939453,
				132
			]
		},
		{
			"extras":{
				"HG":{},
				"flip_fluid":{},
				"ant_landscape":{},
				"jv_properties":{}
			},
			"mesh":2,
			"name":"perni.001",
			"translation":[
				0.15158489346504211,
				0.035897135734558105,
				-0.0018973499536514282
			]
		},
		{
			"children":[
				2
			],
			"extras":{
				"flip_fluid":{},
				"ant_landscape":{},
				"jv_properties":{},
				"HG":{}
			},
			"mesh":3,
			"name":"door.001",
			"scale":[
				999.9999389648438,
				999.9999389648438,
				999.9999389648438
			],
			"translation":[
				-165.79998779296875,
				1564.102783203125,
				169.55140686035156
			]
		},
		{
			"extras":{
				"HG":{},
				"flip_fluid":{},
				"ant_landscape":{},
				"jv_properties":{}
			},
			"mesh":4,
			"name":"perni.002",
			"translation":[
				0.15158489346504211,
				0.035897135734558105,
				-0.0018973574042320251
			]
		},
		{
			"children":[
				4
			],
			"extras":{
				"flip_fluid":{},
				"ant_landscape":{},
				"jv_properties":{},
				"HG":{}
			},
			"mesh":5,
			"name":"door.002",
			"rotation":[
				0,
				0.5735764503479004,
				0,
				0.8191521763801575
			],
			"scale":[
				999.9999389648438,
				999.9999389648438,
				999.9999389648438
			],
			"translation":[
				262.2086486816406,
				1564.102783203125,
				310.73724365234375
			]
		},
		{
			"extras":{
				"flip_fluid":{},
				"ant_landscape":{},
				"jv_properties":{},
				"HG":{}
			},
			"mesh":6,
			"name":"gommino.001",
			"rotation":[
				0,
				0,
				-1,
				0
			],
			"scale":[
				-1,
				-1,
				-1
			],
			"translation":[
				-0.6200937628746033,
				-0.001500000013038516,
				-0.3099365532398224
			]
		},
		{
			"extras":{
				"flip_fluid":{},
				"ant_landscape":{},
				"jv_properties":{},
				"HG":{}
			},
			"mesh":7,
			"name":"gommino.002",
			"rotation":[
				0,
				0,
				-1,
				0
			],
			"scale":[
				-1,
				-1,
				-1
			],
			"translation":[
				0.03390628099441528,
				-0.001500000013038516,
				-0.3099365532398224
			]
		},
		{
			"extras":{
				"flip_fluid":{},
				"ant_landscape":{},
				"jv_properties":{},
				"HG":{}
			},
			"mesh":8,
			"name":"gommino.003",
			"translation":[
				-0.6200937628746033,
				-0.001500000013038516,
				-0.016063451766967773
			]
		},
		{
			"extras":{
				"flip_fluid":{},
				"ant_landscape":{},
				"jv_properties":{},
				"HG":{}
			},
			"mesh":9,
			"name":"gommino.004",
			"translation":[
				0.03390628099441528,
				-0.001500000013038516,
				-0.016063451766967773
			]
		},
		{
			"children":[
				6,
				7,
				8,
				9
			],
			"extras":{
				"flip_fluid":{},
				"ant_landscape":{},
				"jv_properties":{},
				"HG":{}
			},
			"mesh":10,
			"name":"foots",
			"rotation":[
				0,
				0,
				-1,
				0
			],
			"scale":[
				-999.9999389648438,
				-999.9999389648438,
				-999.9999389648438
			],
			"translation":[
				293,
				2.999999761581421,
				-163
			]
		},
		{
			"extras":{
				"HG":{},
				"flip_fluid":{},
				"ant_landscape":{},
				"jv_properties":{}
			},
			"mesh":11,
			"name":"insert.01",
			"scale":[
				999.9999389648438,
				999.9999389648438,
				999.9999389648438
			],
			"translation":[
				-165,
				1400,
				169
			]
		},
		{
			"extras":{
				"HG":{},
				"flip_fluid":{},
				"ant_landscape":{},
				"jv_properties":{}
			},
			"mesh":12,
			"name":"insert.02",
			"rotation":[
				0,
				0.5735764503479004,
				0,
				0.8191521763801575
			],
			"scale":[
				999.9999389648438,
				999.9999389648438,
				999.9999389648438
			],
			"translation":[
				263.1583251953125,
				1400,
				306.5020751953125
			]
		},
		{
			"extras":{
				"flip_fluid":{},
				"HG":{},
				"ant_landscape":{},
				"jv_properties":{}
			},
			"mesh":13,
			"name":"Key.01",
			"translation":[
				-4.589557647705078e-06,
				0.002303898334503174,
				0.009179145097732544
			]
		},
		{
			"extras":{
				"flip_fluid":{},
				"HG":{},
				"ant_landscape":{},
				"jv_properties":{}
			},
			"mesh":14,
			"name":"Key.02",
			"translation":[
				0.0005892515182495117,
				-0.033621132373809814,
				0.0226743221282959
			]
		},
		{
			"extras":{
				"flip_fluid":{},
				"HG":{},
				"ant_landscape":{},
				"jv_properties":{}
			},
			"mesh":15,
			"name":"ring.01",
			"rotation":[
				0,
				0.5105642676353455,
				0,
				0.8598395586013794
			],
			"translation":[
				-0.0008696317672729492,
				-0.008394122123718262,
				0.023361042141914368
			]
		},
		{
			"children":[
				13,
				14,
				15
			],
			"extras":{
				"HG":{},
				"flip_fluid":{},
				"ant_landscape":{},
				"jv_properties":{}
			},
			"mesh":16,
			"name":"lock.01",
			"scale":[
				999.9999389648438,
				999.9999389648438,
				999.9999389648438
			],
			"translation":[
				-284.9999694824219,
				899.9927978515625,
				168.445068359375
			]
		},
		{
			"extras":{
				"flip_fluid":{},
				"HG":{},
				"ant_landscape":{},
				"jv_properties":{}
			},
			"mesh":17,
			"name":"Key.03",
			"translation":[
				0.00862400233745575,
				0.002303898334503174,
				0.0031437277793884277
			]
		},
		{
			"extras":{
				"flip_fluid":{},
				"HG":{},
				"ant_landscape":{},
				"jv_properties":{}
			},
			"mesh":18,
			"name":"Key.04",
			"rotation":[
				0,
				0.5735764503479004,
				0,
				0.8191521763801575
			],
			"translation":[
				0.023151621222496033,
				-0.03352564573287964,
				0.007799357175827026
			]
		},
		{
			"extras":{
				"flip_fluid":{},
				"HG":{},
				"ant_landscape":{},
				"jv_properties":{}
			},
			"mesh":19,
			"name":"ring.02",
			"rotation":[
				0,
				0.4871453642845154,
				0,
				0.8733209371566772
			],
			"translation":[
				0.022887572646141052,
				-0.008277714252471924,
				0.00848415493965149
			]
		},
		{
			"children":[
				17,
				18,
				19
			],
			"extras":{
				"HG":{},
				"flip_fluid":{},
				"ant_landscape":{},
				"jv_properties":{}
			},
			"mesh":20,
			"name":"lock.02",
			"scale":[
				999.9999389648438,
				999.9999389648438,
				999.9999389648438
			],
			"translation":[
				220.3697052001953,
				899.9927978515625,
				422.45416259765625
			]
		},
		{
			"extras":{
				"flip_fluid":{},
				"ant_landscape":{},
				"jv_properties":{},
				"HG":{}
			},
			"mesh":21,
			"name":"support",
			"scale":[
				999.9999389648438,
				999.9999389648438,
				999.9999389648438
			],
			"translation":[
				343,
				1481.1810302734375,
				0
			]
		},
		{
			"extras":{
				"HG":{},
				"flip_fluid":{},
				"ant_landscape":{},
				"jv_properties":{}
			},
			"mesh":22,
			"name":"top",
			"scale":[
				999.9999389648438,
				999.9999389648438,
				999.9999389648438
			],
			"translation":[
				0,
				1775,
				0
			]
		},
		{
			"extras":{
				"HG":{},
				"flip_fluid":{},
				"ant_landscape":{},
				"jv_properties":{}
			},
			"mesh":23,
			"name":"top.int",
			"scale":[
				999.9999389648438,
				999.9999389648438,
				999.9999389648438
			],
			"translation":[
				0,
				1525,
				0
			]
		},
		{
			"extras":{
				"HG":{},
				"flip_fluid":{},
				"ant_landscape":{},
				"jv_properties":{}
			},
			"mesh":24,
			"name":"wall",
			"scale":[
				999.9999389648438,
				999.9999389648438,
				999.9999389648438
			]
		},
		{
			"children":[
				0,
				1,
				3,
				5,
				10,
				11,
				12,
				16,
				20,
				21,
				22,
				23,
				24
			],
			"extras":{
				"HG":{},
				"flip_fluid":{},
				"ant_landscape":{}
			},
			"name":"Locker",
			"scale":[
				0.0010000000474974513,
				0.0010000000474974513,
				0.0010000000474974513
			]
		},
		{
			"extras":{
				"flip_fluid":{},
				"ant_landscape":{},
				"jv_properties":{},
				"HG":{}
			},
			"mesh":25,
			"name":"box_base",
			"scale":[
				999.9999389648438,
				999.9999389648438,
				999.9999389648438
			],
			"translation":[
				0,
				35.15959167480469,
				0
			]
		},
		{
			"extras":{
				"flip_fluid":{},
				"HG":{},
				"ant_landscape":{},
				"jv_properties":{}
			},
			"mesh":26,
			"name":"box_top",
			"scale":[
				999.9999389648438,
				999.9999389648438,
				999.9999389648438
			],
			"translation":[
				-12.536285400390625,
				92.39999389648438,
				-15.639270782470703
			]
		},
		{
			"children":[
				26,
				27
			],
			"extras":{
				"flip_fluid":{},
				"HG":{},
				"ant_landscape":{}
			},
			"name":"Adidas_box",
			"translation":[
				179.34669494628906,
				155.00001525878906,
				-50.90719223022461
			]
		},
		{
			"extras":{
				"flip_fluid":{},
				"HG":{},
				"ant_landscape":{},
				"jv_properties":{}
			},
			"mesh":27,
			"name":"glasses",
			"rotation":[
				0,
				-0.472060889005661,
				0,
				0.8815659284591675
			],
			"scale":[
				999.9999389648438,
				999.9999389648438,
				999.9999389648438
			],
			"translation":[
				181.58050537109375,
				1551.7265625,
				53.37152862548828
			]
		},
		{
			"extras":{
				"flip_fluid":{},
				"HG":{},
				"ant_landscape":{},
				"jv_properties":{}
			},
			"mesh":28,
			"name":"hanger02",
			"rotation":[
				0,
				-0.3791217803955078,
				0,
				0.9253469109535217
			],
			"scale":[
				999.9999389648438,
				999.9999389648438,
				999.9999389648438
			],
			"translation":[
				92.4628677368164,
				1376.7086181640625,
				-1.5314723253250122
			]
		},
		{
			"extras":{
				"flip_fluid":{},
				"HG":{},
				"ant_landscape":{},
				"jv_properties":{}
			},
			"mesh":29,
			"name":"label",
			"rotation":[
				0.7071068286895752,
				0,
				0,
				0.7071068286895752
			],
			"scale":[
				999.9999389648438,
				999.9999389648438,
				999.9999389648438
			],
			"translation":[
				-165,
				1400.9998779296875,
				167.84214782714844
			]
		},
		{
			"extras":{
				"flip_fluid":{},
				"HG":{},
				"ant_landscape":{},
				"jv_properties":{}
			},
			"mesh":30,
			"name":"label2",
			"rotation":[
				0,
				0.5735764503479004,
				0,
				0.8191521763801575
			],
			"scale":[
				999.9999389648438,
				999.9999389648438,
				999.9999389648438
			],
			"translation":[
				261.9820556640625,
				1400.9998779296875,
				306.08001708984375
			]
		},
		{
			"extras":{
				"flip_fluid":{},
				"ant_landscape":{},
				"jv_properties":{},
				"HG":{}
			},
			"mesh":31,
			"name":"magnet.01",
			"scale":[
				999.9999389648438,
				999.9999389648438,
				999.9999389648438
			],
			"translation":[
				282.5027160644531,
				1324.8372802734375,
				241.11740112304688
			]
		},
		{
			"extras":{
				"flip_fluid":{},
				"ant_landscape":{},
				"jv_properties":{},
				"HG":{}
			},
			"mesh":32,
			"name":"magnet.02",
			"scale":[
				999.9999389648438,
				999.9999389648438,
				999.9999389648438
			],
			"translation":[
				244.09036254882812,
				1285.6270751953125,
				346.3953857421875
			]
		},
		{
			"extras":{
				"flip_fluid":{},
				"ant_landscape":{},
				"jv_properties":{}
			},
			"mesh":33,
			"name":"magnet.03",
			"scale":[
				999.9999389648438,
				999.9999389648438,
				999.9999389648438
			],
			"translation":[
				248.72998046875,
				1107.3424072265625,
				334.0831604003906
			]
		},
		{
			"extras":{
				"flip_fluid":{},
				"ant_landscape":{},
				"jv_properties":{}
			},
			"mesh":34,
			"name":"magnet.04",
			"scale":[
				999.9999389648438,
				999.9999389648438,
				999.9999389648438
			],
			"translation":[
				281.4169616699219,
				1110.813720703125,
				244.25669860839844
			]
		},
		{
			"extras":{
				"flip_fluid":{},
				"ant_landscape":{},
				"jv_properties":{}
			},
			"mesh":35,
			"name":"no_smoking",
			"rotation":[
				0,
				-0.1736481785774231,
				0,
				0.9848078489303589
			],
			"scale":[
				999.9999389648438,
				999.9999389648438,
				999.9999389648438
			],
			"translation":[
				256.6935119628906,
				1435.1925048828125,
				308.4490966796875
			]
		},
		{
			"extras":{
				"flip_fluid":{},
				"ant_landscape":{},
				"jv_properties":{}
			},
			"mesh":36,
			"name":"Pinup01",
			"scale":[
				999.9999389648438,
				999.9999389648438,
				999.9999389648438
			],
			"translation":[
				283.8497314453125,
				1264.329833984375,
				243.64437866210938
			]
		},
		{
			"extras":{
				"flip_fluid":{},
				"ant_landscape":{},
				"jv_properties":{},
				"HG":{}
			},
			"mesh":37,
			"name":"Pinup02",
			"scale":[
				999.9999389648438,
				999.9999389648438,
				999.9999389648438
			],
			"translation":[
				241.91909790039062,
				1213.071533203125,
				358.59613037109375
			]
		},
		{
			"extras":{
				"flip_fluid":{},
				"ant_landscape":{},
				"jv_properties":{}
			},
			"mesh":38,
			"name":"Pinup03",
			"scale":[
				999.9999389648438,
				999.9999389648438,
				999.9999389648438
			],
			"translation":[
				267.87359619140625,
				1018.7533569335938,
				287.59783935546875
			]
		},
		{
			"extras":{
				"flip_fluid":{},
				"ant_landscape":{},
				"jv_properties":{},
				"HG":{}
			},
			"mesh":39,
			"name":"t_shirt",
			"rotation":[
				0,
				-0.3791217803955078,
				0,
				0.9253469109535217
			],
			"scale":[
				999.9999389648438,
				999.9999389648438,
				999.9999389648438
			],
			"translation":[
				90.33057403564453,
				1033.4771728515625,
				-0.06597954034805298
			]
		},
		{
			"children":[
				28,
				29,
				30,
				31,
				32,
				33,
				34,
				35,
				36,
				37,
				38,
				39,
				40,
				41
			],
			"extras":{
				"HG":{},
				"flip_fluid":{},
				"ant_landscape":{}
			},
			"name":"Accessories",
			"scale":[
				0.0010000000474974513,
				0.0010000000474974513,
				0.0010000000474974513
			]
		}
	],
	"materials":[
		{
			"doubleSided":true,
			"extensions":{
				"KHR_materials_specular":{
					"specularFactor":0.6000000238418579
				},
				"KHR_materials_ior":{
					"ior":1.4500000476837158
				}
			},
			"extras":{
				"flip_fluid_material_library":{}
			},
			"name":"metal",
			"pbrMetallicRoughness":{
				"baseColorFactor":[
					0.38798511028289795,
					0.3942566514015198,
					0.3623538613319397,
					1
				],
				"metallicFactor":0,
				"metallicRoughnessTexture":{
					"index":0
				}
			}
		},
		{
			"doubleSided":true,
			"extensions":{
				"KHR_materials_specular":{
					"specularFactor":0.4000000059604645
				},
				"KHR_materials_ior":{
					"ior":1.4500000476837158
				}
			},
			"extras":{
				"flip_fluid_material_library":{}
			},
			"name":"rubber",
			"pbrMetallicRoughness":{
				"baseColorFactor":[
					0,
					0,
					0,
					1
				],
				"metallicFactor":0,
				"roughnessFactor":0.800000011920929
			}
		},
		{
			"doubleSided":true,
			"extras":{
				"flip_fluid_material_library":{}
			},
			"name":"Cromo"
		},
		{
			"doubleSided":true,
			"extras":{
				"flip_fluid_material_library":{}
			},
			"name":"metal2",
			"pbrMetallicRoughness":{
				"baseColorFactor":[
					0.05937817692756653,
					0.05937817692756653,
					0.05937817692756653,
					1
				],
				"metallicFactor":0.5,
				"roughnessFactor":0.5
			}
		},
		{
			"doubleSided":true,
			"extensions":{
				"KHR_materials_specular":{
					"specularFactor":0.6000000238418579
				},
				"KHR_materials_ior":{
					"ior":1.4500000476837158
				}
			},
			"extras":{
				"flip_fluid_material_library":{}
			},
			"name":"blue",
			"pbrMetallicRoughness":{
				"baseColorTexture":{
					"index":1
				},
				"metallicFactor":0,
				"roughnessFactor":0.699999988079071
			}
		},
		{
			"doubleSided":true,
			"extensions":{
				"KHR_materials_specular":{
					"specularFactor":0.6000000238418579
				},
				"KHR_materials_ior":{
					"ior":1.4500000476837158
				}
			},
			"extras":{
				"flip_fluid_material_library":{}
			},
			"name":"white",
			"pbrMetallicRoughness":{
				"metallicFactor":0,
				"roughnessFactor":0.699999988079071
			}
		},
		{
			"doubleSided":true,
			"extras":{
				"flip_fluid_material_library":{}
			},
			"name":"Material",
			"pbrMetallicRoughness":{
				"baseColorFactor":[
					0,
					0,
					0,
					1
				],
				"metallicFactor":0,
				"roughnessFactor":0.30000001192092896
			}
		},
		{
			"doubleSided":true,
			"extras":{
				"mmd_material":{},
				"flip_fluid_material_library":{}
			},
			"name":"Glass"
		},
		{
			"doubleSided":true,
			"extras":{
				"flip_fluid_material_library":{}
			},
			"name":"Cromo.001"
		},
		{
			"alphaMode":"BLEND",
			"doubleSided":true,
			"extras":{
				"flip_fluid_material_library":{}
			},
			"name":"label",
			"pbrMetallicRoughness":{
				"baseColorTexture":{
					"index":2
				},
				"metallicFactor":0,
				"roughnessFactor":0.5
			}
		},
		{
			"alphaMode":"BLEND",
			"doubleSided":true,
			"extras":{
				"flip_fluid_material_library":{}
			},
			"name":"label2",
			"pbrMetallicRoughness":{
				"baseColorTexture":{
					"index":3
				},
				"metallicFactor":0,
				"roughnessFactor":0.5
			}
		},
		{
			"doubleSided":true,
			"extras":{
				"flip_fluid_material_library":{}
			},
			"name":"plastic",
			"pbrMetallicRoughness":{
				"baseColorFactor":[
					0,
					0.06536077708005905,
					0.23409417271614075,
					1
				],
				"metallicFactor":0,
				"roughnessFactor":0.20000000298023224
			}
		},
		{
			"doubleSided":true,
			"extras":{
				"flip_fluid_material_library":{}
			},
			"name":"magnet",
			"pbrMetallicRoughness":{
				"baseColorFactor":[
					0.005033371038734913,
					0.005033371038734913,
					0.005033371038734913,
					1
				],
				"metallicFactor":0,
				"roughnessFactor":0.5
			}
		},
		{
			"alphaMode":"BLEND",
			"doubleSided":true,
			"extras":{
				"flip_fluid_material_library":{}
			},
			"name":"no_smoking",
			"pbrMetallicRoughness":{
				"baseColorTexture":{
					"index":4
				},
				"metallicFactor":0,
				"roughnessFactor":0.5
			}
		},
		{
			"alphaMode":"BLEND",
			"doubleSided":true,
			"extras":{
				"flip_fluid_material_library":{}
			},
			"name":"Pinup01",
			"pbrMetallicRoughness":{
				"baseColorTexture":{
					"index":5
				},
				"metallicFactor":0,
				"roughnessFactor":0.30000001192092896
			}
		},
		{
			"alphaMode":"BLEND",
			"doubleSided":true,
			"extras":{
				"flip_fluid_material_library":{}
			},
			"name":"Pinup02",
			"pbrMetallicRoughness":{
				"baseColorTexture":{
					"index":6
				},
				"metallicFactor":0,
				"roughnessFactor":0.30000001192092896
			}
		},
		{
			"alphaMode":"BLEND",
			"doubleSided":true,
			"extras":{
				"flip_fluid_material_library":{}
			},
			"name":"Pinup03",
			"pbrMetallicRoughness":{
				"baseColorTexture":{
					"index":7
				},
				"metallicFactor":0,
				"roughnessFactor":0.30000001192092896
			}
		},
		{
			"doubleSided":true,
			"extensions":{
				"KHR_materials_specular":{
					"specularFactor":0.4000000059604645
				},
				"KHR_materials_ior":{
					"ior":1.4500000476837158
				}
			},
			"extras":{
				"flip_fluid_material_library":{}
			},
			"name":"label.001",
			"pbrMetallicRoughness":{
				"baseColorTexture":{
					"index":8
				},
				"metallicFactor":0,
				"roughnessFactor":0.800000011920929
			}
		},
		{
			"doubleSided":true,
			"extensions":{
				"KHR_materials_specular":{
					"specularFactor":0.4000000059604645
				},
				"KHR_materials_ior":{
					"ior":1.4500000476837158
				}
			},
			"extras":{
				"flip_fluid_material_library":{}
			},
			"name":"shirt",
			"normalTexture":{
				"index":9
			},
			"pbrMetallicRoughness":{
				"baseColorFactor":[
					0.800000011920929,
					0.800000011920929,
					0.800000011920929,
					1
				],
				"metallicFactor":0,
				"roughnessFactor":0.800000011920929
			}
		}
	],
	"meshes":[
		{
			"name":"Plane.001",
			"primitives":[
				{
					"attributes":{
						"POSITION":0,
						"NORMAL":1,
						"TEXCOORD_0":2,
						"TANGENT":3
					},
					"indices":4,
					"material":0
				}
			]
		},
		{
			"name":"Plane.008",
			"primitives":[
				{
					"attributes":{
						"POSITION":5,
						"NORMAL":6,
						"TEXCOORD_0":7,
						"TANGENT":8
					},
					"indices":9,
					"material":0
				}
			]
		},
		{
			"name":"Cylinder.005",
			"primitives":[
				{
					"attributes":{
						"POSITION":10,
						"NORMAL":11,
						"TEXCOORD_0":12
					},
					"indices":13,
					"material":0
				}
			]
		},
		{
			"name":"Plane.014",
			"primitives":[
				{
					"attributes":{
						"POSITION":14,
						"NORMAL":15,
						"TEXCOORD_0":16
					},
					"indices":17,
					"material":0
				}
			]
		},
		{
			"name":"Cylinder.006",
			"primitives":[
				{
					"attributes":{
						"POSITION":18,
						"NORMAL":19,
						"TEXCOORD_0":20
					},
					"indices":13,
					"material":0
				}
			]
		},
		{
			"name":"Plane.016",
			"primitives":[
				{
					"attributes":{
						"POSITION":21,
						"NORMAL":22,
						"TEXCOORD_0":23
					},
					"indices":24,
					"material":0
				}
			]
		},
		{
			"name":"Cylinder.007",
			"primitives":[
				{
					"attributes":{
						"POSITION":25,
						"NORMAL":26,
						"TEXCOORD_0":27
					},
					"indices":28,
					"material":1
				}
			]
		},
		{
			"name":"Cylinder.001",
			"primitives":[
				{
					"attributes":{
						"POSITION":29,
						"NORMAL":30,
						"TEXCOORD_0":31
					},
					"indices":28,
					"material":1
				}
			]
		},
		{
			"name":"Cylinder.008",
			"primitives":[
				{
					"attributes":{
						"POSITION":32,
						"NORMAL":33,
						"TEXCOORD_0":34
					},
					"indices":28,
					"material":1
				}
			]
		},
		{
			"name":"Cylinder.003",
			"primitives":[
				{
					"attributes":{
						"POSITION":35,
						"NORMAL":36,
						"TEXCOORD_0":37
					},
					"indices":28,
					"material":1
				}
			]
		},
		{
			"name":"Plane.005",
			"primitives":[
				{
					"attributes":{
						"POSITION":38,
						"NORMAL":39,
						"TEXCOORD_0":40,
						"TANGENT":41
					},
					"indices":42,
					"material":0
				}
			]
		},
		{
			"name":"Plane.003",
			"primitives":[
				{
					"attributes":{
						"POSITION":43,
						"NORMAL":44,
						"TEXCOORD_0":45
					},
					"indices":46,
					"material":0
				}
			]
		},
		{
			"name":"Plane",
			"primitives":[
				{
					"attributes":{
						"POSITION":47,
						"NORMAL":48,
						"TEXCOORD_0":49
					},
					"indices":46,
					"material":0
				}
			]
		},
		{
			"name":"Object_0",
			"primitives":[
				{
					"attributes":{
						"POSITION":50,
						"NORMAL":51,
						"TEXCOORD_0":52,
						"TANGENT":53
					},
					"indices":54,
					"material":2
				}
			]
		},
		{
			"name":"Object_0.001",
			"primitives":[
				{
					"attributes":{
						"POSITION":55,
						"NORMAL":56,
						"TEXCOORD_0":57,
						"TANGENT":58
					},
					"indices":59,
					"material":2
				}
			]
		},
		{
			"name":"defaultMaterial.002",
			"primitives":[
				{
					"attributes":{
						"POSITION":60,
						"NORMAL":61,
						"TEXCOORD_0":62,
						"TANGENT":63
					},
					"indices":64,
					"material":2
				}
			]
		},
		{
			"name":"421411",
			"primitives":[
				{
					"attributes":{
						"POSITION":65,
						"NORMAL":66
					},
					"indices":67,
					"material":2
				}
			]
		},
		{
			"name":"Object_0.002",
			"primitives":[
				{
					"attributes":{
						"POSITION":68,
						"NORMAL":69,
						"TEXCOORD_0":70,
						"TANGENT":71
					},
					"indices":72,
					"material":2
				}
			]
		},
		{
			"name":"Object_0.003",
			"primitives":[
				{
					"attributes":{
						"POSITION":73,
						"NORMAL":74,
						"TEXCOORD_0":75,
						"TANGENT":76
					},
					"indices":59,
					"material":2
				}
			]
		},
		{
			"name":"defaultMaterial.001",
			"primitives":[
				{
					"attributes":{
						"POSITION":77,
						"NORMAL":78,
						"TEXCOORD_0":79,
						"TANGENT":80
					},
					"indices":64,
					"material":2
				}
			]
		},
		{
			"name":"421411.001",
			"primitives":[
				{
					"attributes":{
						"POSITION":81,
						"NORMAL":82
					},
					"indices":83,
					"material":2
				}
			]
		},
		{
			"name":"Plane.002",
			"primitives":[
				{
					"attributes":{
						"POSITION":84,
						"NORMAL":85,
						"TEXCOORD_0":86
					},
					"indices":87,
					"material":3
				}
			]
		},
		{
			"name":"Plane.007",
			"primitives":[
				{
					"attributes":{
						"POSITION":88,
						"NORMAL":89,
						"TEXCOORD_0":90,
						"TANGENT":91
					},
					"indices":4,
					"material":0
				}
			]
		},
		{
			"name":"Plane.010",
			"primitives":[
				{
					"attributes":{
						"POSITION":92,
						"NORMAL":93,
						"TEXCOORD_0":94,
						"TANGENT":95
					},
					"indices":96,
					"material":0
				}
			]
		},
		{
			"name":"Plane.006",
			"primitives":[
				{
					"attributes":{
						"POSITION":97,
						"NORMAL":98,
						"TEXCOORD_0":99
					},
					"indices":100,
					"material":0
				}
			]
		},
		{
			"name":"ID50",
			"primitives":[
				{
					"attributes":{
						"POSITION":101,
						"NORMAL":102,
						"TEXCOORD_0":103
					},
					"indices":104,
					"material":4
				},
				{
					"attributes":{
						"POSITION":105,
						"NORMAL":106,
						"TEXCOORD_0":107
					},
					"indices":108,
					"material":5
				},
				{
					"attributes":{
						"POSITION":109,
						"NORMAL":110,
						"TEXCOORD_0":111
					},
					"indices":112,
					"material":4
				}
			]
		},
		{
			"name":"ID41",
			"primitives":[
				{
					"attributes":{
						"POSITION":113,
						"NORMAL":114,
						"TEXCOORD_0":115
					},
					"indices":116,
					"material":4
				},
				{
					"attributes":{
						"POSITION":117,
						"NORMAL":118,
						"TEXCOORD_0":119
					},
					"indices":120,
					"material":5
				}
			]
		},
		{
			"name":"Cube.001_Inesta_03_0",
			"primitives":[
				{
					"attributes":{
						"POSITION":121,
						"NORMAL":122,
						"TEXCOORD_0":123
					},
					"indices":124,
					"material":6
				},
				{
					"attributes":{
						"POSITION":125,
						"NORMAL":126,
						"TEXCOORD_0":127
					},
					"indices":128,
					"material":7
				}
			]
		},
		{
			"name":"ID24",
			"primitives":[
				{
					"attributes":{
						"POSITION":129,
						"NORMAL":130,
						"TEXCOORD_0":131
					},
					"indices":132,
					"material":8
				}
			]
		},
		{
			"name":"label",
			"primitives":[
				{
					"attributes":{
						"POSITION":133,
						"NORMAL":134,
						"TEXCOORD_0":135,
						"TANGENT":136
					},
					"indices":137,
					"material":9
				}
			]
		},
		{
			"name":"label2",
			"primitives":[
				{
					"attributes":{
						"POSITION":138,
						"NORMAL":139,
						"TEXCOORD_0":140,
						"TANGENT":141
					},
					"indices":137,
					"material":10
				}
			]
		},
		{
			"name":"Cylinder",
			"primitives":[
				{
					"attributes":{
						"POSITION":142,
						"NORMAL":143,
						"TEXCOORD_0":144
					},
					"indices":145,
					"material":11
				},
				{
					"attributes":{
						"POSITION":146,
						"NORMAL":147,
						"TEXCOORD_0":148
					},
					"indices":149,
					"material":12
				}
			]
		},
		{
			"name":"Cylinder.002",
			"primitives":[
				{
					"attributes":{
						"POSITION":150,
						"NORMAL":151,
						"TEXCOORD_0":152
					},
					"indices":145,
					"material":11
				},
				{
					"attributes":{
						"POSITION":153,
						"NORMAL":154,
						"TEXCOORD_0":155
					},
					"indices":149,
					"material":12
				}
			]
		},
		{
			"name":"Cylinder.004",
			"primitives":[
				{
					"attributes":{
						"POSITION":156,
						"NORMAL":157,
						"TEXCOORD_0":158
					},
					"indices":145,
					"material":11
				},
				{
					"attributes":{
						"POSITION":159,
						"NORMAL":160,
						"TEXCOORD_0":161
					},
					"indices":149,
					"material":12
				}
			]
		},
		{
			"name":"Cylinder.009",
			"primitives":[
				{
					"attributes":{
						"POSITION":162,
						"NORMAL":163,
						"TEXCOORD_0":164
					},
					"indices":145,
					"material":11
				},
				{
					"attributes":{
						"POSITION":165,
						"NORMAL":166,
						"TEXCOORD_0":167
					},
					"indices":149,
					"material":12
				}
			]
		},
		{
			"name":"no_smoking",
			"primitives":[
				{
					"attributes":{
						"POSITION":168,
						"NORMAL":169,
						"TEXCOORD_0":170,
						"TANGENT":171
					},
					"indices":172,
					"material":13
				}
			]
		},
		{
			"name":"Pinup01",
			"primitives":[
				{
					"attributes":{
						"POSITION":173,
						"NORMAL":174,
						"TEXCOORD_0":175,
						"TANGENT":176
					},
					"indices":177,
					"material":14
				}
			]
		},
		{
			"name":"Pinup02",
			"primitives":[
				{
					"attributes":{
						"POSITION":178,
						"NORMAL":179,
						"TEXCOORD_0":180,
						"TANGENT":181
					},
					"indices":177,
					"material":15
				}
			]
		},
		{
			"name":"Pinup03",
			"primitives":[
				{
					"attributes":{
						"POSITION":182,
						"NORMAL":183,
						"TEXCOORD_0":184,
						"TANGENT":185
					},
					"indices":177,
					"material":16
				}
			]
		},
		{
			"name":"ID33",
			"primitives":[
				{
					"attributes":{
						"POSITION":186,
						"NORMAL":187,
						"TEXCOORD_0":188
					},
					"indices":189,
					"material":17
				},
				{
					"attributes":{
						"POSITION":190,
						"NORMAL":191,
						"TEXCOORD_0":192
					},
					"indices":193,
					"material":18
				}
			]
		}
	],
	"textures":[
		{
			"sampler":0,
			"source":0
		},
		{
			"sampler":0,
			"source":1
		},
		{
			"sampler":1,
			"source":2
		},
		{
			"sampler":1,
			"source":3
		},
		{
			"sampler":1,
			"source":4
		},
		{
			"sampler":1,
			"source":5
		},
		{
			"sampler":1,
			"source":6
		},
		{
			"sampler":1,
			"source":7
		},
		{
			"sampler":0,
			"source":8
		},
		{
			"sampler":0,
			"source":9
		}
	],
	"images":[
		{
			"mimeType":"image/jpeg",
			"name":"stripes-lines-scratches.jpg",
			"uri":"../../Assests/locker%281%29/source/Locker/Locker/maps/stripes-lines-scratches.jpg"
		},
		{
			"mimeType":"image/png",
			"name":"Adidas.png.001",
			"uri":"../../Assests/locker%281%29/source/Locker/Locker/maps/Adidas.png"
		},
		{
			"mimeType":"image/png",
			"name":"label.jpg",
			"uri":"../../Assests/locker%281%29/source/Locker/Locker/maps/label.jpg"
		},
		{
			"mimeType":"image/png",
			"name":"label2.jpg",
			"uri":"../../Assests/locker%281%29/source/Locker/Locker/maps/label2.jpg"
		},
		{
			"mimeType":"image/png",
			"name":"no_smoking.png",
			"uri":"../../Assests/locker%281%29/source/Locker/Locker/maps/no_smoking.png"
		},
		{
			"mimeType":"image/png",
			"name":"Pinup01.jpg",
			"uri":"../../Assests/locker%281%29/source/Locker/Locker/maps/Pinup01.jpg"
		},
		{
			"mimeType":"image/png",
			"name":"Pinup02.jpg",
			"uri":"../../Assests/locker%281%29/source/Locker/Locker/maps/Pinup02.jpg"
		},
		{
			"mimeType":"image/png",
			"name":"Pinup03.jpg",
			"uri":"../../Assests/locker%281%29/source/Locker/Locker/maps/Pinup03.jpg"
		},
		{
			"mimeType":"image/jpeg",
			"name":"Converse.jpg",
			"uri":"../../Assests/locker%281%29/source/Locker/Locker/maps/Converse.jpg"
		},
		{
			"mimeType":"image/jpeg",
			"name":"fabric_b.jpg.001",
			"uri":"../../Assests/locker%281%29/source/Locker/Locker/maps/fabric_b.jpg"
		}
	],
	"accessors":[
		{
			"bufferView":0,
			"componentType":5126,
			"count":1344,
			"max":[
				0.3450000286102295,
				0,
				0.16500000655651093
			],
			"min":[
				-0.3450000286102295,
				-0.030000003054738045,
				-0.16500000655651093
			],
			"type":"VEC3"
		},
		{
			"bufferView":1,
			"componentType":5126,
			"count":1344,
			"type":"VEC3"
		},
		{
			"bufferView":2,
			"componentType":5126,
			"count":1344,
			"type":"VEC2"
		},
		{
			"bufferView":3,
			"componentType":5126,
			"count":1344,
			"type":"VEC4"
		},
		{
			"bufferView":4,
			"componentType":5123,
			"count":2100,
			"type":"SCALAR"
		},
		{
			"bufferView":5,
			"componentType":5126,
			"count":368,
			"max":[
				0.032999999821186066,
				1.6200001239776611,
				0.03500000014901161
			],
			"min":[
				-0.032999999821186066,
				0.026000000536441803,
				0.012999989092350006
			],
			"type":"VEC3"
		},
		{
			"bufferView":6,
			"componentType":5126,
			"count":368,
			"type":"VEC3"
		},
		{
			"bufferView":7,
			"componentType":5126,
			"count":368,
			"type":"VEC2"
		},
		{
			"bufferView":8,
			"componentType":5126,
			"count":368,
			"type":"VEC4"
		},
		{
			"bufferView":9,
			"componentType":5123,
			"count":612,
			"type":"SCALAR"
		},
		{
			"bufferView":10,
			"componentType":5126,
			"count":1206,
			"max":[
				0.003000000026077032,
				0.02500000037252903,
				0.003000000026077032
			],
			"min":[
				-0.003000000026077032,
				-1.2649999856948853,
				-0.003000000026077032
			],
			"type":"VEC3"
		},
		{
			"bufferView":11,
			"componentType":5126,
			"count":1206,
			"type":"VEC3"
		},
		{
			"bufferView":12,
			"componentType":5126,
			"count":1206,
			"type":"VEC2"
		},
		{
			"bufferView":13,
			"componentType":5123,
			"count":3816,
			"type":"SCALAR"
		},
		{
			"bufferView":14,
			"componentType":5126,
			"count":4444,
			"max":[
				0.14999698102474213,
				0.17939722537994385,
				0.0034486062359064817
			],
			"min":[
				-0.14550302922725677,
				-1.4076029062271118,
				-0.022551413625478745
			],
			"type":"VEC3"
		},
		{
			"bufferView":15,
			"componentType":5126,
			"count":4444,
			"type":"VEC3"
		},
		{
			"bufferView":16,
			"componentType":5126,
			"count":4444,
			"type":"VEC2"
		},
		{
			"bufferView":17,
			"componentType":5123,
			"count":16902,
			"type":"SCALAR"
		},
		{
			"bufferView":18,
			"componentType":5126,
			"count":1206,
			"max":[
				0.003000000026077032,
				0.02500000037252903,
				0.003000000026077032
			],
			"min":[
				-0.003000000026077032,
				-1.2649999856948853,
				-0.003000000026077032
			],
			"type":"VEC3"
		},
		{
			"bufferView":19,
			"componentType":5126,
			"count":1206,
			"type":"VEC3"
		},
		{
			"bufferView":20,
			"componentType":5126,
			"count":1206,
			"type":"VEC2"
		},
		{
			"bufferView":21,
			"componentType":5126,
			"count":4444,
			"max":[
				0.14999698102474213,
				0.17939722537994385,
				0.0034486062359064817
			],
			"min":[
				-0.14550302922725677,
				-1.4076029062271118,
				-0.022551413625478745
			],
			"type":"VEC3"
		},
		{
			"bufferView":22,
			"componentType":5126,
			"count":4444,
			"type":"VEC3"
		},
		{
			"bufferView":23,
			"componentType":5126,
			"count":4444,
			"type":"VEC2"
		},
		{
			"bufferView":24,
			"componentType":5123,
			"count":16902,
			"type":"SCALAR"
		},
		{
			"bufferView":25,
			"componentType":5126,
			"count":342,
			"max":[
				0.012500000186264515,
				0.0015000010607764125,
				0.012500000186264515
			],
			"min":[
				-0.012500000186264515,
				-0.0015000010607764125,
				-0.012500000186264515
			],
			"type":"VEC3"
		},
		{
			"bufferView":26,
			"componentType":5126,
			"count":342,
			"type":"VEC3"
		},
		{
			"bufferView":27,
			"componentType":5126,
			"count":342,
			"type":"VEC2"
		},
		{
			"bufferView":28,
			"componentType":5123,
			"count":756,
			"type":"SCALAR"
		},
		{
			"bufferView":29,
			"componentType":5126,
			"count":342,
			"max":[
				0.012500000186264515,
				0.0015000010607764125,
				0.012500000186264515
			],
			"min":[
				-0.012500000186264515,
				-0.0015000010607764125,
				-0.012500000186264515
			],
			"type":"VEC3"
		},
		{
			"bufferView":30,
			"componentType":5126,
			"count":342,
			"type":"VEC3"
		},
		{
			"bufferView":31,
			"componentType":5126,
			"count":342,
			"type":"VEC2"
		},
		{
			"bufferView":32,
			"componentType":5126,
			"count":342,
			"max":[
				0.012500000186264515,
				0.0015000010607764125,
				0.012500000186264515
			],
			"min":[
				-0.012500000186264515,
				-0.0015000010607764125,
				-0.012500000186264515
			],
			"type":"VEC3"
		},
		{
			"bufferView":33,
			"componentType":5126,
			"count":342,
			"type":"VEC3"
		},
		{
			"bufferView":34,
			"componentType":5126,
			"count":342,
			"type":"VEC2"
		},
		{
			"bufferView":35,
			"componentType":5126,
			"count":342,
			"max":[
				0.012500000186264515,
				0.0015000010607764125,
				0.012500000186264515
			],
			"min":[
				-0.012500000186264515,
				-0.0015000010607764125,
				-0.012500000186264515
			],
			"type":"VEC3"
		},
		{
			"bufferView":36,
			"componentType":5126,
			"count":342,
			"type":"VEC3"
		},
		{
			"bufferView":37,
			"componentType":5126,
			"count":342,
			"type":"VEC2"
		},
		{
			"bufferView":38,
			"componentType":5126,
			"count":816,
			"max":[
				0.05000000074505806,
				0.15000000596046448,
				2.1855695031547384e-09
			],
			"min":[
				-0.6360000371932983,
				-4.021448063440403e-09,
				-0.32600000500679016
			],
			"type":"VEC3"
		},
		{
			"bufferView":39,
			"componentType":5126,
			"count":816,
			"type":"VEC3"
		},
		{
			"bufferView":40,
			"componentType":5126,
			"count":816,
			"type":"VEC2"
		},
		{
			"bufferView":41,
			"componentType":5126,
			"count":816,
			"type":"VEC4"
		},
		{
			"bufferView":42,
			"componentType":5123,
			"count":2832,
			"type":"SCALAR"
		},
		{
			"bufferView":43,
			"componentType":5126,
			"count":130,
			"max":[
				0.030000001192092896,
				0.020000001415610313,
				1.311341701892843e-09
			],
			"min":[
				-0.030000001192092896,
				-0.020000001415610313,
				-0.0020000014919787645
			],
			"type":"VEC3"
		},
		{
			"bufferView":44,
			"componentType":5126,
			"count":130,
			"type":"VEC3"
		},
		{
			"bufferView":45,
			"componentType":5126,
			"count":130,
			"type":"VEC2"
		},
		{
			"bufferView":46,
			"componentType":5123,
			"count":240,
			"type":"SCALAR"
		},
		{
			"bufferView":47,
			"componentType":5126,
			"count":130,
			"max":[
				0.030000001192092896,
				0.020000001415610313,
				1.311341701892843e-09
			],
			"min":[
				-0.030000001192092896,
				-0.020000001415610313,
				-0.0020000014919787645
			],
			"type":"VEC3"
		},
		{
			"bufferView":48,
			"componentType":5126,
			"count":130,
			"type":"VEC3"
		},
		{
			"bufferView":49,
			"componentType":5126,
			"count":130,
			"type":"VEC2"
		},
		{
			"bufferView":50,
			"componentType":5126,
			"count":10828,
			"max":[
				0.0007283745799213648,
				0.010354657657444477,
				0.02059009298682213
			],
			"min":[
				-0.0007283354643732309,
				-0.011053494177758694,
				-0.029137002304196358
			],
			"type":"VEC3"
		},
		{
			"bufferView":51,
			"componentType":5126,
			"count":10828,
			"type":"VEC3"
		},
		{
			"bufferView":52,
			"componentType":5126,
			"count":10828,
			"type":"VEC2"
		},
		{
			"bufferView":53,
			"componentType":5126,
			"count":10828,
			"type":"VEC4"
		},
		{
			"bufferView":54,
			"componentType":5123,
			"count":50280,
			"type":"SCALAR"
		},
		{
			"bufferView":55,
			"componentType":5126,
			"count":10828,
			"max":[
				0.0010854743886739016,
				0.02058866247534752,
				0.011136545799672604
			],
			"min":[
				-0.0011321534402668476,
				-0.029126305133104324,
				-0.01027366891503334
			],
			"type":"VEC3"
		},
		{
			"bufferView":56,
			"componentType":5126,
			"count":10828,
			"type":"VEC3"
		},
		{
			"bufferView":57,
			"componentType":5126,
			"count":10828,
			"type":"VEC2"
		},
		{
			"bufferView":58,
			"componentType":5126,
			"count":10828,
			"type":"VEC4"
		},
		{
			"bufferView":59,
			"componentType":5123,
			"count":50280,
			"type":"SCALAR"
		},
		{
			"bufferView":60,
			"componentType":5126,
			"count":438,
			"max":[
				0.003679995657876134,
				0.008271876722574234,
				0.008560911752283573
			],
			"min":[
				-0.0034748627804219723,
				-0.008259451016783714,
				-0.007272365968674421
			],
			"type":"VEC3"
		},
		{
			"bufferView":61,
			"componentType":5126,
			"count":438,
			"type":"VEC3"
		},
		{
			"bufferView":62,
			"componentType":5126,
			"count":438,
			"type":"VEC2"
		},
		{
			"bufferView":63,
			"componentType":5126,
			"count":438,
			"type":"VEC4"
		},
		{
			"bufferView":64,
			"componentType":5123,
			"count":2130,
			"type":"SCALAR"
		},
		{
			"bufferView":65,
			"componentType":5126,
			"count":2268,
			"max":[
				0.011966446414589882,
				0.03195426985621452,
				0.005000001285225153
			],
			"min":[
				-0.011966446414589882,
				-0.012510000728070736,
				-0.01875058002769947
			],
			"type":"VEC3"
		},
		{
			"bufferView":66,
			"componentType":5126,
			"count":2268,
			"type":"VEC3"
		},
		{
			"bufferView":67,
			"componentType":5123,
			"count":6984,
			"type":"SCALAR"
		},
		{
			"bufferView":68,
			"componentType":5126,
			"count":10828,
			"max":[
				0.019488872960209846,
				0.010354657657444477,
				0.00754235964268446
			],
			"min":[
				-0.02737981639802456,
				-0.011053494177758694,
				-0.010021139867603779
			],
			"type":"VEC3"
		},
		{
			"bufferView":69,
			"componentType":5126,
			"count":10828,
			"type":"VEC3"
		},
		{
			"bufferView":70,
			"componentType":5126,
			"count":10828,
			"type":"VEC2"
		},
		{
			"bufferView":71,
			"componentType":5126,
			"count":10828,
			"type":"VEC4"
		},
		{
			"bufferView":72,
			"componentType":5123,
			"count":50280,
			"type":"SCALAR"
		},
		{
			"bufferView":73,
			"componentType":5126,
			"count":10828,
			"max":[
				0.0010854743886739016,
				0.02058866247534752,
				0.011136545799672604
			],
			"min":[
				-0.0011321534402668476,
				-0.029126305133104324,
				-0.01027366891503334
			],
			"type":"VEC3"
		},
		{
			"bufferView":74,
			"componentType":5126,
			"count":10828,
			"type":"VEC3"
		},
		{
			"bufferView":75,
			"componentType":5126,
			"count":10828,
			"type":"VEC2"
		},
		{
			"bufferView":76,
			"componentType":5126,
			"count":10828,
			"type":"VEC4"
		},
		{
			"bufferView":77,
			"componentType":5126,
			"count":438,
			"max":[
				0.00888809934258461,
				0.008271876722574234,
				0.0021146901417523623
			],
			"min":[
				-0.007614850532263517,
				-0.008259451016783714,
				-0.0020077612716704607
			],
			"type":"VEC3"
		},
		{
			"bufferView":78,
			"componentType":5126,
			"count":438,
			"type":"VEC3"
		},
		{
			"bufferView":79,
			"componentType":5126,
			"count":438,
			"type":"VEC2"
		},
		{
			"bufferView":80,
			"componentType":5126,
			"count":438,
			"type":"VEC4"
		},
		{
			"bufferView":81,
			"componentType":5126,
			"count":2268,
			"max":[
				0.007916895672678947,
				0.03195426985621452,
				0.011102386750280857
			],
			"min":[
				-0.018131807446479797,
				-0.012510000728070736,
				-0.012818855233490467
			],
			"type":"VEC3"
		},
		{
			"bufferView":82,
			"componentType":5126,
			"count":2268,
			"type":"VEC3"
		},
		{
			"bufferView":83,
			"componentType":5123,
			"count":6984,
			"type":"SCALAR"
		},
		{
			"bufferView":84,
			"componentType":5126,
			"count":406,
			"max":[
				2.415930344668027e-09,
				0.04000000283122063,
				0.02500000037252903
			],
			"min":[
				-0.6860000491142273,
				-0.04000000283122063,
				-0.02500000223517418
			],
			"type":"VEC3"
		},
		{
			"bufferView":85,
			"componentType":5126,
			"count":406,
			"type":"VEC3"
		},
		{
			"bufferView":86,
			"componentType":5126,
			"count":406,
			"type":"VEC2"
		},
		{
			"bufferView":87,
			"componentType":5123,
			"count":1116,
			"type":"SCALAR"
		},
		{
			"bufferView":88,
			"componentType":5126,
			"count":1344,
			"max":[
				0.3450000286102295,
				0,
				0.16500000655651093
			],
			"min":[
				-0.3450000286102295,
				-0.030000003054738045,
				-0.16500000655651093
			],
			"type":"VEC3"
		},
		{
			"bufferView":89,
			"componentType":5126,
			"count":1344,
			"type":"VEC3"
		},
		{
			"bufferView":90,
			"componentType":5126,
			"count":1344,
			"type":"VEC2"
		},
		{
			"bufferView":91,
			"componentType":5126,
			"count":1344,
			"type":"VEC4"
		},
		{
			"bufferView":92,
			"componentType":5126,
			"count":1344,
			"max":[
				0.3450000286102295,
				0,
				0.14500001072883606
			],
			"min":[
				-0.3450000286102295,
				-0.030000003054738045,
				-0.16500000655651093
			],
			"type":"VEC3"
		},
		{
			"bufferView":93,
			"componentType":5126,
			"count":1344,
			"type":"VEC3"
		},
		{
			"bufferView":94,
			"componentType":5126,
			"count":1344,
			"type":"VEC2"
		},
		{
			"bufferView":95,
			"componentType":5126,
			"count":1344,
			"type":"VEC4"
		},
		{
			"bufferView":96,
			"componentType":5123,
			"count":2100,
			"type":"SCALAR"
		},
		{
			"bufferView":97,
			"componentType":5126,
			"count":910,
			"max":[
				0.34700003266334534,
				1.7710001468658447,
				0.16700001060962677
			],
			"min":[
				-0.34700003266334534,
				0.1250000149011612,
				-0.16700001060962677
			],
			"type":"VEC3"
		},
		{
			"bufferView":98,
			"componentType":5126,
			"count":910,
			"type":"VEC3"
		},
		{
			"bufferView":99,
			"componentType":5126,
			"count":910,
			"type":"VEC2"
		},
		{
			"bufferView":100,
			"componentType":5123,
			"count":1788,
			"type":"SCALAR"
		},
		{
			"bufferView":101,
			"componentType":5126,
			"count":105,
			"max":[
				0.14840441942214966,
				0.0698404535651207,
				0.10164903104305267
			],
			"min":[
				-0.16159558296203613,
				-0.03515961021184921,
				-0.09335137158632278
			],
			"type":"VEC3"
		},
		{
			"bufferView":102,
			"componentType":5126,
			"count":105,
			"type":"VEC3"
		},
		{
			"bufferView":103,
			"componentType":5126,
			"count":105,
			"type":"VEC2"
		},
		{
			"bufferView":104,
			"componentType":5123,
			"count":261,
			"type":"SCALAR"
		},
		{
			"bufferView":105,
			"componentType":5126,
			"count":24,
			"max":[
				0.14706340432167053,
				0.06984041631221771,
				0.10164900869131088
			],
			"min":[
				-0.160254567861557,
				-0.03515961021184921,
				-0.09335135668516159
			],
			"type":"VEC3"
		},
		{
			"bufferView":106,
			"componentType":5126,
			"count":24,
			"type":"VEC3"
		},
		{
			"bufferView":107,
			"componentType":5126,
			"count":24,
			"type":"VEC2"
		},
		{
			"bufferView":108,
			"componentType":5123,
			"count":36,
			"type":"SCALAR"
		},
		{
			"bufferView":109,
			"componentType":5126,
			"count":8,
			"max":[
				0.14840441942214966,
				0.0348404161632061,
				0.10164900869131088
			],
			"min":[
				-0.16159558296203613,
				-0.03515961021184921,
				-0.09335137158632278
			],
			"type":"VEC3"
		},
		{
			"bufferView":110,
			"componentType":5126,
			"count":8,
			"type":"VEC3"
		},
		{
			"bufferView":111,
			"componentType":5126,
			"count":8,
			"type":"VEC2"
		},
		{
			"bufferView":112,
			"componentType":5123,
			"count":12,
			"type":"SCALAR"
		},
		{
			"bufferView":113,
			"componentType":5126,
			"count":76,
			"max":[
				0.16300004720687866,
				0.017600012943148613,
				0.1194000244140625
			],
			"min":[
				-0.1510000228881836,
				-0.022400015965104103,
				-0.07960006594657898
			],
			"type":"VEC3"
		},
		{
			"bufferView":114,
			"componentType":5126,
			"count":76,
			"type":"VEC3"
		},
		{
			"bufferView":115,
			"componentType":5126,
			"count":76,
			"type":"VEC2"
		},
		{
			"bufferView":116,
			"componentType":5123,
			"count":120,
			"type":"SCALAR"
		},
		{
			"bufferView":117,
			"componentType":5126,
			"count":36,
			"max":[
				0.12551197409629822,
				0.017600012943148613,
				0.1194000244140625
			],
			"min":[
				-0.11351194977760315,
				-0.022400015965104103,
				-0.07960005104541779
			],
			"type":"VEC3"
		},
		{
			"bufferView":118,
			"componentType":5126,
			"count":36,
			"type":"VEC3"
		},
		{
			"bufferView":119,
			"componentType":5126,
			"count":36,
			"type":"VEC2"
		},
		{
			"bufferView":120,
			"componentType":5123,
			"count":54,
			"type":"SCALAR"
		},
		{
			"bufferView":121,
			"componentType":5126,
			"count":5382,
			"max":[
				0.07228049635887146,
				0.016752274706959724,
				0.026078268885612488
			],
			"min":[
				-0.0723164826631546,
				-0.026726651936769485,
				-0.13389772176742554
			],
			"type":"VEC3"
		},
		{
			"bufferView":122,
			"componentType":5126,
			"count":5382,
			"type":"VEC3"
		},
		{
			"bufferView":123,
			"componentType":5126,
			"count":5382,
			"type":"VEC2"
		},
		{
			"bufferView":124,
			"componentType":5123,
			"count":25068,
			"type":"SCALAR"
		},
		{
			"bufferView":125,
			"componentType":5126,
			"count":162,
			"max":[
				0.06532852351665497,
				0.013230124488472939,
				0.023619001731276512
			],
			"min":[
				-0.06536450982093811,
				-0.02536584995687008,
				0.02055276185274124
			],
			"type":"VEC3"
		},
		{
			"bufferView":126,
			"componentType":5126,
			"count":162,
			"type":"VEC3"
		},
		{
			"bufferView":127,
			"componentType":5126,
			"count":162,
			"type":"VEC2"
		},
		{
			"bufferView":128,
			"componentType":5123,
			"count":768,
			"type":"SCALAR"
		},
		{
			"bufferView":129,
			"componentType":5126,
			"count":4279,
			"max":[
				0.06909030675888062,
				0.09312623739242554,
				0.1898047775030136
			],
			"min":[
				-0.07154585421085358,
				-0.10319297015666962,
				-0.18799668550491333
			],
			"type":"VEC3"
		},
		{
			"bufferView":130,
			"componentType":5126,
			"count":4279,
			"type":"VEC3"
		},
		{
			"bufferView":131,
			"componentType":5126,
			"count":4279,
			"type":"VEC2"
		},
		{
			"bufferView":132,
			"componentType":5123,
			"count":18006,
			"type":"SCALAR"
		},
		{
			"bufferView":133,
			"componentType":5126,
			"count":4,
			"max":[
				0.02801649644970894,
				0,
				0.01801060512661934
			],
			"min":[
				-0.02801649644970894,
				0,
				-0.01801060512661934
			],
			"type":"VEC3"
		},
		{
			"bufferView":134,
			"componentType":5126,
			"count":4,
			"type":"VEC3"
		},
		{
			"bufferView":135,
			"componentType":5126,
			"count":4,
			"type":"VEC2"
		},
		{
			"bufferView":136,
			"componentType":5126,
			"count":4,
			"type":"VEC4"
		},
		{
			"bufferView":137,
			"componentType":5123,
			"count":6,
			"type":"SCALAR"
		},
		{
			"bufferView":138,
			"componentType":5126,
			"count":4,
			"max":[
				0.028018299490213394,
				0.01801176369190216,
				7.873192098273307e-10
			],
			"min":[
				-0.028018299490213394,
				-0.01801176369190216,
				-7.873192098273307e-10
			],
			"type":"VEC3"
		},
		{
			"bufferView":139,
			"componentType":5126,
			"count":4,
			"type":"VEC3"
		},
		{
			"bufferView":140,
			"componentType":5126,
			"count":4,
			"type":"VEC2"
		},
		{
			"bufferView":141,
			"componentType":5126,
			"count":4,
			"type":"VEC4"
		},
		{
			"bufferView":142,
			"componentType":5126,
			"count":482,
			"max":[
				0.005299586337059736,
				0.010000000707805157,
				0.010080967098474503
			],
			"min":[
				-0.0047260974533855915,
				-0.010000000707805157,
				-0.009509622119367123
			],
			"type":"VEC3"
		},
		{
			"bufferView":143,
			"componentType":5126,
			"count":482,
			"type":"VEC3"
		},
		{
			"bufferView":144,
			"componentType":5126,
			"count":482,
			"type":"VEC2"
		},
		{
			"bufferView":145,
			"componentType":5123,
			"count":1626,
			"type":"SCALAR"
		},
		{
			"bufferView":146,
			"componentType":5126,
			"count":32,
			"max":[
				0.004955911543220282,
				0.008995162323117256,
				0.009136728011071682
			],
			"min":[
				-0.0011971410131081939,
				-0.008995162323117256,
				-0.007768647279590368
			],
			"type":"VEC3"
		},
		{
			"bufferView":147,
			"componentType":5126,
			"count":32,
			"type":"VEC3"
		},
		{
			"bufferView":148,
			"componentType":5126,
			"count":32,
			"type":"VEC2"
		},
		{
			"bufferView":149,
			"componentType":5123,
			"count":90,
			"type":"SCALAR"
		},
		{
			"bufferView":150,
			"componentType":5126,
			"count":482,
			"max":[
				0.005299586337059736,
				0.010000000707805157,
				0.010080967098474503
			],
			"min":[
				-0.0047260974533855915,
				-0.010000000707805157,
				-0.009509622119367123
			],
			"type":"VEC3"
		},
		{
			"bufferView":151,
			"componentType":5126,
			"count":482,
			"type":"VEC3"
		},
		{
			"bufferView":152,
			"componentType":5126,
			"count":482,
			"type":"VEC2"
		},
		{
			"bufferView":153,
			"componentType":5126,
			"count":32,
			"max":[
				0.004955911543220282,
				0.008995162323117256,
				0.009136728011071682
			],
			"min":[
				-0.0011971410131081939,
				-0.008995162323117256,
				-0.007768647279590368
			],
			"type":"VEC3"
		},
		{
			"bufferView":154,
			"componentType":5126,
			"count":32,
			"type":"VEC3"
		},
		{
			"bufferView":155,
			"componentType":5126,
			"count":32,
			"type":"VEC2"
		},
		{
			"bufferView":156,
			"componentType":5126,
			"count":482,
			"max":[
				0.005299586337059736,
				0.010000000707805157,
				0.010080967098474503
			],
			"min":[
				-0.0047260974533855915,
				-0.010000000707805157,
				-0.009509622119367123
			],
			"type":"VEC3"
		},
		{
			"bufferView":157,
			"componentType":5126,
			"count":482,
			"type":"VEC3"
		},
		{
			"bufferView":158,
			"componentType":5126,
			"count":482,
			"type":"VEC2"
		},
		{
			"bufferView":159,
			"componentType":5126,
			"count":32,
			"max":[
				0.004955911543220282,
				0.008995162323117256,
				0.009136728011071682
			],
			"min":[
				-0.0011971410131081939,
				-0.008995162323117256,
				-0.007768647279590368
			],
			"type":"VEC3"
		},
		{
			"bufferView":160,
			"componentType":5126,
			"count":32,
			"type":"VEC3"
		},
		{
			"bufferView":161,
			"componentType":5126,
			"count":32,
			"type":"VEC2"
		},
		{
			"bufferView":162,
			"componentType":5126,
			"count":482,
			"max":[
				0.005299586337059736,
				0.010000000707805157,
				0.010080967098474503
			],
			"min":[
				-0.0047260974533855915,
				-0.010000000707805157,
				-0.009509622119367123
			],
			"type":"VEC3"
		},
		{
			"bufferView":163,
			"componentType":5126,
			"count":482,
			"type":"VEC3"
		},
		{
			"bufferView":164,
			"componentType":5126,
			"count":482,
			"type":"VEC2"
		},
		{
			"bufferView":165,
			"componentType":5126,
			"count":32,
			"max":[
				0.004955911543220282,
				0.008995162323117256,
				0.009136728011071682
			],
			"min":[
				-0.0011971410131081939,
				-0.008995162323117256,
				-0.007768647279590368
			],
			"type":"VEC3"
		},
		{
			"bufferView":166,
			"componentType":5126,
			"count":32,
			"type":"VEC3"
		},
		{
			"bufferView":167,
			"componentType":5126,
			"count":32,
			"type":"VEC2"
		},
		{
			"bufferView":168,
			"componentType":5126,
			"count":150,
			"max":[
				0.0024144824128597975,
				0.0684545487165451,
				0.06800678372383118
			],
			"min":[
				0.002413705689832568,
				-0.06845507025718689,
				-0.06800700724124908
			],
			"type":"VEC3"
		},
		{
			"bufferView":169,
			"componentType":5126,
			"count":150,
			"type":"VEC3"
		},
		{
			"bufferView":170,
			"componentType":5126,
			"count":150,
			"type":"VEC2"
		},
		{
			"bufferView":171,
			"componentType":5126,
			"count":150,
			"type":"VEC4"
		},
		{
			"bufferView":172,
			"componentType":5123,
			"count":726,
			"type":"SCALAR"
		},
		{
			"bufferView":173,
			"componentType":5126,
			"count":484,
			"max":[
				0.014507271349430084,
				0.05817108973860741,
				0.03985839709639549
			],
			"min":[
				-0.025025872513651848,
				-0.05817108973860741,
				-0.03985839709639549
			],
			"type":"VEC3"
		},
		{
			"bufferView":174,
			"componentType":5126,
			"count":484,
			"type":"VEC3"
		},
		{
			"bufferView":175,
			"componentType":5126,
			"count":484,
			"type":"VEC2"
		},
		{
			"bufferView":176,
			"componentType":5126,
			"count":484,
			"type":"VEC4"
		},
		{
			"bufferView":177,
			"componentType":5123,
			"count":2646,
			"type":"SCALAR"
		},
		{
			"bufferView":178,
			"componentType":5126,
			"count":484,
			"max":[
				0.01841132715344429,
				0.0708402544260025,
				0.05058470368385315
			],
			"min":[
				-0.024400632828474045,
				-0.0708402544260025,
				-0.05058470368385315
			],
			"type":"VEC3"
		},
		{
			"bufferView":179,
			"componentType":5126,
			"count":484,
			"type":"VEC3"
		},
		{
			"bufferView":180,
			"componentType":5126,
			"count":484,
			"type":"VEC2"
		},
		{
			"bufferView":181,
			"componentType":5126,
			"count":484,
			"type":"VEC4"
		},
		{
			"bufferView":182,
			"componentType":5126,
			"count":484,
			"max":[
				0.024340350180864334,
				0.08904232829809189,
				0.06687454879283905
			],
			"min":[
				-0.028298668563365936,
				-0.08904232829809189,
				-0.06687454879283905
			],
			"type":"VEC3"
		},
		{
			"bufferView":183,
			"componentType":5126,
			"count":484,
			"type":"VEC3"
		},
		{
			"bufferView":184,
			"componentType":5126,
			"count":484,
			"type":"VEC2"
		},
		{
			"bufferView":185,
			"componentType":5126,
			"count":484,
			"type":"VEC4"
		},
		{
			"bufferView":186,
			"componentType":5126,
			"count":100,
			"max":[
				0.008302317000925541,
				0.2930518388748169,
				0.2125263512134552
			],
			"min":[
				-0.09002865850925446,
				-0.2799053192138672,
				-0.04237554222345352
			],
			"type":"VEC3"
		},
		{
			"bufferView":187,
			"componentType":5126,
			"count":100,
			"type":"VEC3"
		},
		{
			"bufferView":188,
			"componentType":5126,
			"count":100,
			"type":"VEC2"
		},
		{
			"bufferView":189,
			"componentType":5123,
			"count":432,
			"type":"SCALAR"
		},
		{
			"bufferView":190,
			"componentType":5126,
			"count":14594,
			"max":[
				0.1137026771903038,
				0.3204118013381958,
				0.2517390251159668
			],
			"min":[
				-0.12273753434419632,
				-0.3250783681869507,
				-0.2724721133708954
			],
			"type":"VEC3"
		},
		{
			"bufferView":191,
			"componentType":5126,
			"count":14594,
			"type":"VEC3"
		},
		{
			"bufferView":192,
			"componentType":5126,
			"count":14594,
			"type":"VEC2"
		},
		{
			"bufferView":193,
			"componentType":5123,
			"count":66528,
			"type":"SCALAR"
		}
	],
	"bufferViews":[
		{
			"buffer":0,
			"byteLength":16128,
			"byteOffset":0,
			"target":34962
		},
		{
			"buffer":0,
			"byteLength":16128,
			"byteOffset":16128,
			"target":34962
		},
		{
			"buffer":0,
			"byteLength":10752,
			"byteOffset":32256,
			"target":34962
		},
		{
			"buffer":0,
			"byteLength":21504,
			"byteOffset":43008,
			"target":34962
		},
		{
			"buffer":0,
			"byteLength":4200,
			"byteOffset":64512,
			"target":34963
		},
		{
			"buffer":0,
			"byteLength":4416,
			"byteOffset":68712,
			"target":34962
		},
		{
			"buffer":0,
			"byteLength":4416,
			"byteOffset":73128,
			"target":34962
		},
		{
			"buffer":0,
			"byteLength":2944,
			"byteOffset":77544,
			"target":34962
		},
		{
			"buffer":0,
			"byteLength":5888,
			"byteOffset":80488,
			"target":34962
		},
		{
			"buffer":0,
			"byteLength":1224,
			"byteOffset":86376,
			"target":34963
		},
		{
			"buffer":0,
			"byteLength":14472,
			"byteOffset":87600,
			"target":34962
		},
		{
			"buffer":0,
			"byteLength":14472,
			"byteOffset":102072,
			"target":34962
		},
		{
			"buffer":0,
			"byteLength":9648,
			"byteOffset":116544,
			"target":34962
		},
		{
			"buffer":0,
			"byteLength":7632,
			"byteOffset":126192,
			"target":34963
		},
		{
			"buffer":0,
			"byteLength":53328,
			"byteOffset":133824,
			"target":34962
		},
		{
			"buffer":0,
			"byteLength":53328,
			"byteOffset":187152,
			"target":34962
		},
		{
			"buffer":0,
			"byteLength":35552,
			"byteOffset":240480,
			"target":34962
		},
		{
			"buffer":0,
			"byteLength":33804,
			"byteOffset":276032,
			"target":34963
		},
		{
			"buffer":0,
			"byteLength":14472,
			"byteOffset":309836,
			"target":34962
		},
		{
			"buffer":0,
			"byteLength":14472,
			"byteOffset":324308,
			"target":34962
		},
		{
			"buffer":0,
			"byteLength":9648,
			"byteOffset":338780,
			"target":34962
		},
		{
			"buffer":0,
			"byteLength":53328,
			"byteOffset":348428,
			"target":34962
		},
		{
			"buffer":0,
			"byteLength":53328,
			"byteOffset":401756,
			"target":34962
		},
		{
			"buffer":0,
			"byteLength":35552,
			"byteOffset":455084,
			"target":34962
		},
		{
			"buffer":0,
			"byteLength":33804,
			"byteOffset":490636,
			"target":34963
		},
		{
			"buffer":0,
			"byteLength":4104,
			"byteOffset":524440,
			"target":34962
		},
		{
			"buffer":0,
			"byteLength":4104,
			"byteOffset":528544,
			"target":34962
		},
		{
			"buffer":0,
			"byteLength":2736,
			"byteOffset":532648,
			"target":34962
		},
		{
			"buffer":0,
			"byteLength":1512,
			"byteOffset":535384,
			"target":34963
		},
		{
			"buffer":0,
			"byteLength":4104,
			"byteOffset":536896,
			"target":34962
		},
		{
			"buffer":0,
			"byteLength":4104,
			"byteOffset":541000,
			"target":34962
		},
		{
			"buffer":0,
			"byteLength":2736,
			"byteOffset":545104,
			"target":34962
		},
		{
			"buffer":0,
			"byteLength":4104,
			"byteOffset":547840,
			"target":34962
		},
		{
			"buffer":0,
			"byteLength":4104,
			"byteOffset":551944,
			"target":34962
		},
		{
			"buffer":0,
			"byteLength":2736,
			"byteOffset":556048,
			"target":34962
		},
		{
			"buffer":0,
			"byteLength":4104,
			"byteOffset":558784,
			"target":34962
		},
		{
			"buffer":0,
			"byteLength":4104,
			"byteOffset":562888,
			"target":34962
		},
		{
			"buffer":0,
			"byteLength":2736,
			"byteOffset":566992,
			"target":34962
		},
		{
			"buffer":0,
			"byteLength":9792,
			"byteOffset":569728,
			"target":34962
		},
		{
			"buffer":0,
			"byteLength":9792,
			"byteOffset":579520,
			"target":34962
		},
		{
			"buffer":0,
			"byteLength":6528,
			"byteOffset":589312,
			"target":34962
		},
		{
			"buffer":0,
			"byteLength":13056,
			"byteOffset":595840,
			"target":34962
		},
		{
			"buffer":0,
			"byteLength":5664,
			"byteOffset":608896,
			"target":34963
		},
		{
			"buffer":0,
			"byteLength":1560,
			"byteOffset":614560,
			"target":34962
		},
		{
			"buffer":0,
			"byteLength":1560,
			"byteOffset":616120,
			"target":34962
		},
		{
			"buffer":0,
			"byteLength":1040,
			"byteOffset":617680,
			"target":34962
		},
		{
			"buffer":0,
			"byteLength":480,
			"byteOffset":618720,
			"target":34963
		},
		{
			"buffer":0,
			"byteLength":1560,
			"byteOffset":619200,
			"target":34962
		},
		{
			"buffer":0,
			"byteLength":1560,
			"byteOffset":620760,
			"target":34962
		},
		{
			"buffer":0,
			"byteLength":1040,
			"byteOffset":622320,
			"target":34962
		},
		{
			"buffer":0,
			"byteLength":129936,
			"byteOffset":623360,
			"target":34962
		},
		{
			"buffer":0,
			"byteLength":129936,
			"byteOffset":753296,
			"target":34962
		},
		{
			"buffer":0,
			"byteLength":86624,
			"byteOffset":883232,
			"target":34962
		},
		{
			"buffer":0,
			"byteLength":173248,
			"byteOffset":969856,
			"target":34962
		},
		{
			"buffer":0,
			"byteLength":100560,
			"byteOffset":1143104,
			"target":34963
		},
		{
			"buffer":0,
			"byteLength":129936,
			"byteOffset":1243664,
			"target":34962
		},
		{
			"buffer":0,
			"byteLength":129936,
			"byteOffset":1373600,
			"target":34962
		},
		{
			"buffer":0,
			"byteLength":86624,
			"byteOffset":1503536,
			"target":34962
		},
		{
			"buffer":0,
			"byteLength":173248,
			"byteOffset":1590160,
			"target":34962
		},
		{
			"buffer":0,
			"byteLength":100560,
			"byteOffset":1763408,
			"target":34963
		},
		{
			"buffer":0,
			"byteLength":5256,
			"byteOffset":1863968,
			"target":34962
		},
		{
			"buffer":0,
			"byteLength":5256,
			"byteOffset":1869224,
			"target":34962
		},
		{
			"buffer":0,
			"byteLength":3504,
			"byteOffset":1874480,
			"target":34962
		},
		{
			"buffer":0,
			"byteLength":7008,
			"byteOffset":1877984,
			"target":34962
		},
		{
			"buffer":0,
			"byteLength":4260,
			"byteOffset":1884992,
			"target":34963
		},
		{
			"buffer":0,
			"byteLength":27216,
			"byteOffset":1889252,
			"target":34962
		},
		{
			"buffer":0,
			"byteLength":27216,
			"byteOffset":1916468,
			"target":34962
		},
		{
			"buffer":0,
			"byteLength":13968,
			"byteOffset":1943684,
			"target":34963
		},
		{
			"buffer":0,
			"byteLength":129936,
			"byteOffset":1957652,
			"target":34962
		},
		{
			"buffer":0,
			"byteLength":129936,
			"byteOffset":2087588,
			"target":34962
		},
		{
			"buffer":0,
			"byteLength":86624,
			"byteOffset":2217524,
			"target":34962
		},
		{
			"buffer":0,
			"byteLength":173248,
			"byteOffset":2304148,
			"target":34962
		},
		{
			"buffer":0,
			"byteLength":100560,
			"byteOffset":2477396,
			"target":34963
		},
		{
			"buffer":0,
			"byteLength":129936,
			"byteOffset":2577956,
			"target":34962
		},
		{
			"buffer":0,
			"byteLength":129936,
			"byteOffset":2707892,
			"target":34962
		},
		{
			"buffer":0,
			"byteLength":86624,
			"byteOffset":2837828,
			"target":34962
		},
		{
			"buffer":0,
			"byteLength":173248,
			"byteOffset":2924452,
			"target":34962
		},
		{
			"buffer":0,
			"byteLength":5256,
			"byteOffset":3097700,
			"target":34962
		},
		{
			"buffer":0,
			"byteLength":5256,
			"byteOffset":3102956,
			"target":34962
		},
		{
			"buffer":0,
			"byteLength":3504,
			"byteOffset":3108212,
			"target":34962
		},
		{
			"buffer":0,
			"byteLength":7008,
			"byteOffset":3111716,
			"target":34962
		},
		{
			"buffer":0,
			"byteLength":27216,
			"byteOffset":3118724,
			"target":34962
		},
		{
			"buffer":0,
			"byteLength":27216,
			"byteOffset":3145940,
			"target":34962
		},
		{
			"buffer":0,
			"byteLength":13968,
			"byteOffset":3173156,
			"target":34963
		},
		{
			"buffer":0,
			"byteLength":4872,
			"byteOffset":3187124,
			"target":34962
		},
		{
			"buffer":0,
			"byteLength":4872,
			"byteOffset":3191996,
			"target":34962
		},
		{
			"buffer":0,
			"byteLength":3248,
			"byteOffset":3196868,
			"target":34962
		},
		{
			"buffer":0,
			"byteLength":2232,
			"byteOffset":3200116,
			"target":34963
		},
		{
			"buffer":0,
			"byteLength":16128,
			"byteOffset":3202348,
			"target":34962
		},
		{
			"buffer":0,
			"byteLength":16128,
			"byteOffset":3218476,
			"target":34962
		},
		{
			"buffer":0,
			"byteLength":10752,
			"byteOffset":3234604,
			"target":34962
		},
		{
			"buffer":0,
			"byteLength":21504,
			"byteOffset":3245356,
			"target":34962
		},
		{
			"buffer":0,
			"byteLength":16128,
			"byteOffset":3266860,
			"target":34962
		},
		{
			"buffer":0,
			"byteLength":16128,
			"byteOffset":3282988,
			"target":34962
		},
		{
			"buffer":0,
			"byteLength":10752,
			"byteOffset":3299116,
			"target":34962
		},
		{
			"buffer":0,
			"byteLength":21504,
			"byteOffset":3309868,
			"target":34962
		},
		{
			"buffer":0,
			"byteLength":4200,
			"byteOffset":3331372,
			"target":34963
		},
		{
			"buffer":0,
			"byteLength":10920,
			"byteOffset":3335572,
			"target":34962
		},
		{
			"buffer":0,
			"byteLength":10920,
			"byteOffset":3346492,
			"target":34962
		},
		{
			"buffer":0,
			"byteLength":7280,
			"byteOffset":3357412,
			"target":34962
		},
		{
			"buffer":0,
			"byteLength":3576,
			"byteOffset":3364692,
			"target":34963
		},
		{
			"buffer":0,
			"byteLength":1260,
			"byteOffset":3368268,
			"target":34962
		},
		{
			"buffer":0,
			"byteLength":1260,
			"byteOffset":3369528,
			"target":34962
		},
		{
			"buffer":0,
			"byteLength":840,
			"byteOffset":3370788,
			"target":34962
		},
		{
			"buffer":0,
			"byteLength":522,
			"byteOffset":3371628,
			"target":34963
		},
		{
			"buffer":0,
			"byteLength":288,
			"byteOffset":3372152,
			"target":34962
		},
		{
			"buffer":0,
			"byteLength":288,
			"byteOffset":3372440,
			"target":34962
		},
		{
			"buffer":0,
			"byteLength":192,
			"byteOffset":3372728,
			"target":34962
		},
		{
			"buffer":0,
			"byteLength":72,
			"byteOffset":3372920,
			"target":34963
		},
		{
			"buffer":0,
			"byteLength":96,
			"byteOffset":3372992,
			"target":34962
		},
		{
			"buffer":0,
			"byteLength":96,
			"byteOffset":3373088,
			"target":34962
		},
		{
			"buffer":0,
			"byteLength":64,
			"byteOffset":3373184,
			"target":34962
		},
		{
			"buffer":0,
			"byteLength":24,
			"byteOffset":3373248,
			"target":34963
		},
		{
			"buffer":0,
			"byteLength":912,
			"byteOffset":3373272,
			"target":34962
		},
		{
			"buffer":0,
			"byteLength":912,
			"byteOffset":3374184,
			"target":34962
		},
		{
			"buffer":0,
			"byteLength":608,
			"byteOffset":3375096,
			"target":34962
		},
		{
			"buffer":0,
			"byteLength":240,
			"byteOffset":3375704,
			"target":34963
		},
		{
			"buffer":0,
			"byteLength":432,
			"byteOffset":3375944,
			"target":34962
		},
		{
			"buffer":0,
			"byteLength":432,
			"byteOffset":3376376,
			"target":34962
		},
		{
			"buffer":0,
			"byteLength":288,
			"byteOffset":3376808,
			"target":34962
		},
		{
			"buffer":0,
			"byteLength":108,
			"byteOffset":3377096,
			"target":34963
		},
		{
			"buffer":0,
			"byteLength":64584,
			"byteOffset":3377204,
			"target":34962
		},
		{
			"buffer":0,
			"byteLength":64584,
			"byteOffset":3441788,
			"target":34962
		},
		{
			"buffer":0,
			"byteLength":43056,
			"byteOffset":3506372,
			"target":34962
		},
		{
			"buffer":0,
			"byteLength":50136,
			"byteOffset":3549428,
			"target":34963
		},
		{
			"buffer":0,
			"byteLength":1944,
			"byteOffset":3599564,
			"target":34962
		},
		{
			"buffer":0,
			"byteLength":1944,
			"byteOffset":3601508,
			"target":34962
		},
		{
			"buffer":0,
			"byteLength":1296,
			"byteOffset":3603452,
			"target":34962
		},
		{
			"buffer":0,
			"byteLength":1536,
			"byteOffset":3604748,
			"target":34963
		},
		{
			"buffer":0,
			"byteLength":51348,
			"byteOffset":3606284,
			"target":34962
		},
		{
			"buffer":0,
			"byteLength":51348,
			"byteOffset":3657632,
			"target":34962
		},
		{
			"buffer":0,
			"byteLength":34232,
			"byteOffset":3708980,
			"target":34962
		},
		{
			"buffer":0,
			"byteLength":36012,
			"byteOffset":3743212,
			"target":34963
		},
		{
			"buffer":0,
			"byteLength":48,
			"byteOffset":3779224,
			"target":34962
		},
		{
			"buffer":0,
			"byteLength":48,
			"byteOffset":3779272,
			"target":34962
		},
		{
			"buffer":0,
			"byteLength":32,
			"byteOffset":3779320,
			"target":34962
		},
		{
			"buffer":0,
			"byteLength":64,
			"byteOffset":3779352,
			"target":34962
		},
		{
			"buffer":0,
			"byteLength":12,
			"byteOffset":3779416,
			"target":34963
		},
		{
			"buffer":0,
			"byteLength":48,
			"byteOffset":3779428,
			"target":34962
		},
		{
			"buffer":0,
			"byteLength":48,
			"byteOffset":3779476,
			"target":34962
		},
		{
			"buffer":0,
			"byteLength":32,
			"byteOffset":3779524,
			"target":34962
		},
		{
			"buffer":0,
			"byteLength":64,
			"byteOffset":3779556,
			"target":34962
		},
		{
			"buffer":0,
			"byteLength":5784,
			"byteOffset":3779620,
			"target":34962
		},
		{
			"buffer":0,
			"byteLength":5784,
			"byteOffset":3785404,
			"target":34962
		},
		{
			"buffer":0,
			"byteLength":3856,
			"byteOffset":3791188,
			"target":34962
		},
		{
			"buffer":0,
			"byteLength":3252,
			"byteOffset":3795044,
			"target":34963
		},
		{
			"buffer":0,
			"byteLength":384,
			"byteOffset":3798296,
			"target":34962
		},
		{
			"buffer":0,
			"byteLength":384,
			"byteOffset":3798680,
			"target":34962
		},
		{
			"buffer":0,
			"byteLength":256,
			"byteOffset":3799064,
			"target":34962
		},
		{
			"buffer":0,
			"byteLength":180,
			"byteOffset":3799320,
			"target":34963
		},
		{
			"buffer":0,
			"byteLength":5784,
			"byteOffset":3799500,
			"target":34962
		},
		{
			"buffer":0,
			"byteLength":5784,
			"byteOffset":3805284,
			"target":34962
		},
		{
			"buffer":0,
			"byteLength":3856,
			"byteOffset":3811068,
			"target":34962
		},
		{
			"buffer":0,
			"byteLength":384,
			"byteOffset":3814924,
			"target":34962
		},
		{
			"buffer":0,
			"byteLength":384,
			"byteOffset":3815308,
			"target":34962
		},
		{
			"buffer":0,
			"byteLength":256,
			"byteOffset":3815692,
			"target":34962
		},
		{
			"buffer":0,
			"byteLength":5784,
			"byteOffset":3815948,
			"target":34962
		},
		{
			"buffer":0,
			"byteLength":5784,
			"byteOffset":3821732,
			"target":34962
		},
		{
			"buffer":0,
			"byteLength":3856,
			"byteOffset":3827516,
			"target":34962
		},
		{
			"buffer":0,
			"byteLength":384,
			"byteOffset":3831372,
			"target":34962
		},
		{
			"buffer":0,
			"byteLength":384,
			"byteOffset":3831756,
			"target":34962
		},
		{
			"buffer":0,
			"byteLength":256,
			"byteOffset":3832140,
			"target":34962
		},
		{
			"buffer":0,
			"byteLength":5784,
			"byteOffset":3832396,
			"target":34962
		},
		{
			"buffer":0,
			"byteLength":5784,
			"byteOffset":3838180,
			"target":34962
		},
		{
			"buffer":0,
			"byteLength":3856,
			"byteOffset":3843964,
			"target":34962
		},
		{
			"buffer":0,
			"byteLength":384,
			"byteOffset":3847820,
			"target":34962
		},
		{
			"buffer":0,
			"byteLength":384,
			"byteOffset":3848204,
			"target":34962
		},
		{
			"buffer":0,
			"byteLength":256,
			"byteOffset":3848588,
			"target":34962
		},
		{
			"buffer":0,
			"byteLength":1800,
			"byteOffset":3848844,
			"target":34962
		},
		{
			"buffer":0,
			"byteLength":1800,
			"byteOffset":3850644,
			"target":34962
		},
		{
			"buffer":0,
			"byteLength":1200,
			"byteOffset":3852444,
			"target":34962
		},
		{
			"buffer":0,
			"byteLength":2400,
			"byteOffset":3853644,
			"target":34962
		},
		{
			"buffer":0,
			"byteLength":1452,
			"byteOffset":3856044,
			"target":34963
		},
		{
			"buffer":0,
			"byteLength":5808,
			"byteOffset":3857496,
			"target":34962
		},
		{
			"buffer":0,
			"byteLength":5808,
			"byteOffset":3863304,
			"target":34962
		},
		{
			"buffer":0,
			"byteLength":3872,
			"byteOffset":3869112,
			"target":34962
		},
		{
			"buffer":0,
			"byteLength":7744,
			"byteOffset":3872984,
			"target":34962
		},
		{
			"buffer":0,
			"byteLength":5292,
			"byteOffset":3880728,
			"target":34963
		},
		{
			"buffer":0,
			"byteLength":5808,
			"byteOffset":3886020,
			"target":34962
		},
		{
			"buffer":0,
			"byteLength":5808,
			"byteOffset":3891828,
			"target":34962
		},
		{
			"buffer":0,
			"byteLength":3872,
			"byteOffset":3897636,
			"target":34962
		},
		{
			"buffer":0,
			"byteLength":7744,
			"byteOffset":3901508,
			"target":34962
		},
		{
			"buffer":0,
			"byteLength":5808,
			"byteOffset":3909252,
			"target":34962
		},
		{
			"buffer":0,
			"byteLength":5808,
			"byteOffset":3915060,
			"target":34962
		},
		{
			"buffer":0,
			"byteLength":3872,
			"byteOffset":3920868,
			"target":34962
		},
		{
			"buffer":0,
			"byteLength":7744,
			"byteOffset":3924740,
			"target":34962
		},
		{
			"buffer":0,
			"byteLength":1200,
			"byteOffset":3932484,
			"target":34962
		},
		{
			"buffer":0,
			"byteLength":1200,
			"byteOffset":3933684,
			"target":34962
		},
		{
			"buffer":0,
			"byteLength":800,
			"byteOffset":3934884,
			"target":34962
		},
		{
			"buffer":0,
			"byteLength":864,
			"byteOffset":3935684,
			"target":34963
		},
		{
			"buffer":0,
			"byteLength":175128,
			"byteOffset":3936548,
			"target":34962
		},
		{
			"buffer":0,
			"byteLength":175128,
			"byteOffset":4111676,
			"target":34962
		},
		{
			"buffer":0,
			"byteLength":116752,
			"byteOffset":4286804,
			"target":34962
		},
		{
			"buffer":0,
			"byteLength":133056,
			"byteOffset":4403556,
			"target":34963
		}
	],
	"samplers":[
		{
			"magFilter":9729,
			"minFilter":9987
		},
		{
			"magFilter":9729,
			"minFilter":9987,
			"wrapS":33071,
			"wrapT":33071
		}
	],
	"buffers":[
		{
			"byteLength":4536612,
			"uri":"Locker-ed6f3eb287fe9bf93949b3d1df062a4d.bin"
		}
	]
}
